<svg height="512" viewBox="0 0 512 512" width="512" xmlns="http://www.w3.org/2000/svg" xmlns:xlink="http://www.w3.org/1999/xlink"><linearGradient id="New_Gradient_Swatch_10" gradientUnits="userSpaceOnUse" x1="357.994" x2="477.848" y1="486.965" y2="367.11"><stop offset=".015" stop-color="#fbde7d"/><stop offset="1" stop-color="#fdeebe"/></linearGradient><linearGradient id="New_Gradient_Swatch_10-2" x1="27.114" x2="161.043" xlink:href="#New_Gradient_Swatch_10" y1="494.002" y2="360.073"/><linearGradient id="New_Gradient_Swatch_2" gradientUnits="userSpaceOnUse" x1="140.283" x2="371.717" y1="373.253" y2="141.82"><stop offset=".015" stop-color="#af9cd4"/><stop offset="1" stop-color="#ebe6f4"/></linearGradient><linearGradient id="New_Gradient_Swatch_1" gradientUnits="userSpaceOnUse" x1="142" x2="370" y1="534" y2="306"><stop offset=".015" stop-color="#8ae4c8"/><stop offset="1" stop-color="#e2f8f1"/></linearGradient><linearGradient id="New_Gradient_Swatch_10-3" x1="200.567" x2="315.781" xlink:href="#New_Gradient_Swatch_10" y1="269.833" y2="154.619"/><linearGradient id="New_Gradient_Swatch_15" gradientUnits="userSpaceOnUse" x1="223.515" x2="288.485" y1="372.485" y2="307.515"><stop offset=".015" stop-color="#ebe6f4"/><stop offset="1" stop-color="#f5f3fa"/></linearGradient><g id="_36-bag" data-name="36-bag"><g id="gradient"><path d="m312 124a12 12 0 0 1 -12-12v-64a20.023 20.023 0 0 0 -20-20h-48a20.023 20.023 0 0 0 -20 20v64a12 12 0 0 1 -24 0v-64a44.049 44.049 0 0 1 44-44h48a44.049 44.049 0 0 1 44 44v64a12 12 0 0 1 -12 12z" fill="#fcb6a9"/><path d="m408 332h-24a12 12 0 0 0 -12 12v152a12 12 0 0 0 12 12h72a36.04 36.04 0 0 0 36-36v-56a84.1 84.1 0 0 0 -84-84z" fill="url(#New_Gradient_Swatch_10)"/><path d="m128 332h-24a84.1 84.1 0 0 0 -84 84v56a36.04 36.04 0 0 0 36 36h72a12 12 0 0 0 12-12v-152a12 12 0 0 0 -12-12z" fill="url(#New_Gradient_Swatch_10-2)"/><path d="m256 84c-77.2 0-140 62.8-140 140v120a12 12 0 0 0 12 12h256a12 12 0 0 0 12-12v-120c0-77.2-62.8-140-140-140z" fill="url(#New_Gradient_Swatch_2)"/><path d="m116 332h280v176h-280z" fill="url(#New_Gradient_Swatch_1)"/><path d="m339.921 180.609a12 12 0 0 0 -9.688-8.167l-42.356-6.154-18.942-38.381a12 12 0 0 0 -21.522 0l-18.942 38.381-42.357 6.154a12 12 0 0 0 -6.65 20.468l30.649 29.876-7.235 42.186a12 12 0 0 0 17.411 12.65l37.885-19.917 37.885 19.917a12 12 0 0 0 17.411-12.65l-7.236-42.186 30.65-29.876a12 12 0 0 0 3.037-12.301z" fill="url(#New_Gradient_Swatch_10-3)"/><path d="m280 304h-48a12 12 0 0 0 -12 12v48a12 12 0 0 0 5.344 9.984l24 16a12 12 0 0 0 13.312 0l24-16a12 12 0 0 0 5.344-9.984v-48a12 12 0 0 0 -12-12z" fill="url(#New_Gradient_Swatch_15)"/><path d="m320 476a12 12 0 0 1 -12-12v-32a12 12 0 0 1 24 0v32a12 12 0 0 1 -12 12z" fill="#e2f8f1"/><path d="m116 420h280v24h-280z" fill="#6ddeba"/></g></g></svg>