<svg height="512" viewBox="0 0 512 512" width="512" xmlns="http://www.w3.org/2000/svg" xmlns:xlink="http://www.w3.org/1999/xlink"><linearGradient id="New_Gradient_Swatch_7" gradientUnits="userSpaceOnUse" x1="213.515" x2="298.485" y1="126.485" y2="41.514"><stop offset=".015" stop-color="#9c83c9"/><stop offset="1" stop-color="#c3b5df"/></linearGradient><linearGradient id="New_Gradient_Swatch_7-2" x1="196" x2="316" xlink:href="#New_Gradient_Swatch_7" y1="464" y2="464"/><linearGradient id="New_Gradient_Swatch_12" gradientUnits="userSpaceOnUse" x1="141.757" x2="370.243" y1="389.757" y2="161.272"><stop offset=".015" stop-color="#d7cdea"/><stop offset="1" stop-color="#ebe6f4"/></linearGradient><linearGradient id="New_Gradient_Swatch_5" gradientUnits="userSpaceOnUse" x1="373.515" x2="458.485" y1="230.485" y2="145.514"><stop offset=".015" stop-color="#fb9d8d"/><stop offset="1" stop-color="#fdcec6"/></linearGradient><linearGradient id="New_Gradient_Swatch_11" gradientUnits="userSpaceOnUse" x1="311.757" x2="520.243" y1="463.757" y2="255.272"><stop offset=".015" stop-color="#fdcec6"/><stop offset="1" stop-color="#fee7e2"/></linearGradient><linearGradient id="New_Gradient_Swatch_13" gradientUnits="userSpaceOnUse" x1="53.515" x2="138.485" y1="230.485" y2="145.514"><stop offset=".015" stop-color="#8ae4c8"/><stop offset="1" stop-color="#a7ebd6"/></linearGradient><linearGradient id="New_Gradient_Swatch_6" gradientUnits="userSpaceOnUse" x1="-8.243" x2="200.243" y1="463.757" y2="255.272"><stop offset=".015" stop-color="#c4f2e3"/><stop offset="1" stop-color="#e2f8f1"/></linearGradient><g id="_01-crayon" data-name="01-crayon"><g id="gradient"><path d="m307.077 107.385-40-96a12 12 0 0 0 -22.154 0l-40 96a12 12 0 0 0 11.077 16.615h80a12 12 0 0 0 11.077-16.615z" fill="url(#New_Gradient_Swatch_7)"/><path d="m304 420h-96a12 12 0 0 0 -12 12v48a28.032 28.032 0 0 0 28 28h64a28.032 28.032 0 0 0 28-28v-48a12 12 0 0 0 -12-12z" fill="url(#New_Gradient_Swatch_7-2)"/><path d="m304 100h-96a12 12 0 0 0 -12 12v332h120v-332a12 12 0 0 0 -12-12z" fill="url(#New_Gradient_Swatch_12)"/><path d="m196 140h120v24h-120z" fill="#af9cd4"/><path d="m196 380h120v24h-120z" fill="#af9cd4"/><path d="m467.077 211.385-40-96a12 12 0 0 0 -22.154 0l-40 96a12 12 0 0 0 11.077 16.615h80a12 12 0 0 0 11.077-16.615z" fill="url(#New_Gradient_Swatch_5)"/><path d="m464 204h-96a12 12 0 0 0 -12 12v292h120v-292a12 12 0 0 0 -12-12z" fill="url(#New_Gradient_Swatch_11)"/><path d="m356 240h120v24h-120z" fill="#fb9d8d"/><path d="m147.077 211.385-40-96a12 12 0 0 0 -22.154 0l-40 96a12 12 0 0 0 11.077 16.615h80a12 12 0 0 0 11.077-16.615z" fill="url(#New_Gradient_Swatch_13)"/><path d="m144 204h-96a12 12 0 0 0 -12 12v292h120v-292a12 12 0 0 0 -12-12z" fill="url(#New_Gradient_Swatch_6)"/><path d="m36 240h120v24h-120z" fill="#8ae4c8"/></g></g></svg>