<svg height="512" viewBox="0 0 512 512" width="512" xmlns="http://www.w3.org/2000/svg" xmlns:xlink="http://www.w3.org/1999/xlink"><linearGradient id="New_Gradient_Swatch_5" gradientUnits="userSpaceOnUse" x1="432.902" x2="495.098" y1="215.098" y2="152.902"><stop offset=".015" stop-color="#fb9d8d"/><stop offset="1" stop-color="#fdcec6"/></linearGradient><linearGradient id="New_Gradient_Swatch_16" gradientUnits="userSpaceOnUse" x1="120.823" x2="295.177" y1="501.245" y2="326.891"><stop offset=".015" stop-color="#fdeebe"/><stop offset="1" stop-color="#fef7de"/></linearGradient><linearGradient id="New_Gradient_Swatch_4" gradientUnits="userSpaceOnUse" x1="80.78" x2="335.22" y1="359.22" y2="104.78"><stop offset=".015" stop-color="#fb9d8d"/><stop offset="1" stop-color="#fee7e2"/></linearGradient><linearGradient id="New_Gradient_Swatch_11" gradientUnits="userSpaceOnUse" x1="162.766" x2="253.234" y1="277.234" y2="186.766"><stop offset=".015" stop-color="#fdcec6"/><stop offset="1" stop-color="#fee7e2"/></linearGradient><linearGradient id="New_Gradient_Swatch_13" gradientUnits="userSpaceOnUse" x1="96.444" x2="319.556" y1="593.414" y2="370.302"><stop offset=".015" stop-color="#8ae4c8"/><stop offset="1" stop-color="#a7ebd6"/></linearGradient><g id="_10-alarm" data-name="10-alarm"><g id="gradient"><path d="m256 436a12 12 0 0 1 0-24c108.075 0 196-87.925 196-196a12 12 0 0 1 24 0 220 220 0 0 1 -220 220z" fill="#fce69d"/><circle cx="464" cy="184" fill="url(#New_Gradient_Swatch_5)" r="44"/><path d="m343.58 445.089-28.138-96c-1.565-5.341-7.193-9.089-13.649-9.089h-187.586c-6.456 0-12.084 3.748-13.649 9.089l-28.138 96a10.658 10.658 0 0 0 2.56 10.3 15.062 15.062 0 0 0 11.089 4.611h243.862a15.062 15.062 0 0 0 11.089-4.615 10.658 10.658 0 0 0 2.56-10.296z" fill="url(#New_Gradient_Swatch_16)"/><circle cx="208" cy="232" fill="url(#New_Gradient_Swatch_4)" r="180"/><path d="m208 364c-72.785 0-132-59.215-132-132s59.215-132 132-132 132 59.215 132 132-59.215 132-132 132zm0-240a108 108 0 1 0 108 108 108.122 108.122 0 0 0 -108-108z" fill="#fb9d8d"/><circle cx="208" cy="232" fill="url(#New_Gradient_Swatch_11)" r="64"/><path d="m380 444h-344a32 32 0 0 0 -32 32v20a12 12 0 0 0 12 12h384a12 12 0 0 0 12-12v-20a32 32 0 0 0 -32-32z" fill="url(#New_Gradient_Swatch_13)"/></g></g></svg>