<svg height="512" viewBox="0 0 512 512" width="512" xmlns="http://www.w3.org/2000/svg" xmlns:xlink="http://www.w3.org/1999/xlink"><linearGradient id="New_Gradient_Swatch_2" gradientUnits="userSpaceOnUse" x1="255.515" x2="320.485" y1="120.485" y2="55.515"><stop offset=".015" stop-color="#af9cd4"/><stop offset="1" stop-color="#ebe6f4"/></linearGradient><linearGradient id="New_Gradient_Swatch_16" gradientUnits="userSpaceOnUse" x1="75.515" x2="436.485" y1="572.485" y2="211.515"><stop offset=".015" stop-color="#fdeebe"/><stop offset="1" stop-color="#fef7de"/></linearGradient><linearGradient id="New_Gradient_Swatch_5" gradientUnits="userSpaceOnUse" x1="105.757" x2="406.243" y1="481.757" y2="181.272"><stop offset=".015" stop-color="#fb9d8d"/><stop offset="1" stop-color="#fdcec6"/></linearGradient><linearGradient id="New_Gradient_Swatch_17" gradientUnits="userSpaceOnUse" x1="129.757" x2="382.243" y1="497.757" y2="245.272"><stop offset=".015" stop-color="#fef7de"/><stop offset="1" stop-color="#fefbef"/></linearGradient><linearGradient id="New_Gradient_Swatch_8" gradientUnits="userSpaceOnUse" x1="205.757" x2="306.243" y1="501.757" y2="401.272"><stop offset=".015" stop-color="#ffb676"/><stop offset="1" stop-color="#ffeddd"/></linearGradient><g id="_11-school" data-name="11-school"><g id="gradient"><rect fill="url(#New_Gradient_Swatch_2)" height="56" rx="12" width="88" x="244" y="60"/><path d="m256 172a12 12 0 0 1 -12-12v-104a12 12 0 0 1 24 0v104a12 12 0 0 1 -12 12z" fill="#ebe6f4"/><rect fill="url(#New_Gradient_Swatch_16)" height="232" rx="12" width="504" x="4" y="276"/><path d="m496 276h-480a12 12 0 0 0 -12 12v92h504v-92a12 12 0 0 0 -12-12z" fill="url(#New_Gradient_Swatch_5)"/><path d="m367.316 230.488-104-80a12 12 0 0 0 -14.632 0l-104 80a12 12 0 0 0 -4.684 9.512v268h232v-268a12 12 0 0 0 -4.684-9.512z" fill="url(#New_Gradient_Swatch_17)"/><path d="m256 308a44 44 0 1 1 44-44 44.049 44.049 0 0 1 -44 44zm0-64a20 20 0 1 0 20 20 20.023 20.023 0 0 0 -20-20z" fill="#fce69d"/><path d="m288 388h-64a12 12 0 0 0 -12 12v108h88v-108a12 12 0 0 0 -12-12z" fill="url(#New_Gradient_Swatch_8)"/></g></g></svg>