<svg height="512" viewBox="0 0 512 512" width="512" xmlns="http://www.w3.org/2000/svg" xmlns:xlink="http://www.w3.org/1999/xlink"><linearGradient id="New_Gradient_Swatch_7" gradientUnits="userSpaceOnUse" x1="375.515" x2="448.485" y1="504.485" y2="431.515"><stop offset=".015" stop-color="#9c83c9"/><stop offset="1" stop-color="#c3b5df"/></linearGradient><linearGradient id="New_Gradient_Swatch_7-2" x1="63.515" x2="136.485" xlink:href="#New_Gradient_Swatch_7" y1="504.485" y2="431.515"/><linearGradient id="New_Gradient_Swatch_10" gradientUnits="userSpaceOnUse" x1="438.515" x2="509.485" y1="231.485" y2="160.515"><stop offset=".015" stop-color="#fbde7d"/><stop offset="1" stop-color="#fdeebe"/></linearGradient><linearGradient id="New_Gradient_Swatch_10-2" x1="2.515" x2="73.485" xlink:href="#New_Gradient_Swatch_10" y1="231.485" y2="160.515"/><linearGradient id="New_Gradient_Swatch_17" gradientUnits="userSpaceOnUse" x1="220" x2="292" y1="84" y2="12"><stop offset=".015" stop-color="#fef7de"/><stop offset="1" stop-color="#fefbef"/></linearGradient><linearGradient id="New_Gradient_Swatch_10-3" x1="88.208" x2="423.792" xlink:href="#New_Gradient_Swatch_10" y1="425.179" y2="89.595"/><linearGradient id="New_Gradient_Swatch_6" gradientUnits="userSpaceOnUse" x1="142" x2="370" y1="286" y2="58"><stop offset=".015" stop-color="#c4f2e3"/><stop offset="1" stop-color="#e2f8f1"/></linearGradient><linearGradient id="New_Gradient_Swatch_17-2" x1="356" x2="404" xlink:href="#New_Gradient_Swatch_17" y1="320" y2="320"/><linearGradient id="New_Gradient_Swatch_17-3" gradientTransform="matrix(-1 0 0 1 512 0)" x1="356" x2="404" xlink:href="#New_Gradient_Swatch_17" y1="320" y2="320"/><linearGradient id="New_Gradient_Swatch_17-4" x1="135.515" x2="376.485" xlink:href="#New_Gradient_Swatch_17" y1="536.485" y2="295.515"/><g id="_12-bus" data-name="12-bus"><rect fill="url(#New_Gradient_Swatch_7)" height="80" rx="12" width="80" x="372" y="428"/><rect fill="url(#New_Gradient_Swatch_7-2)" height="80" rx="12" width="80" x="60" y="428"/><path d="m472 172a12 12 0 0 1 -12-12v-24a12.013 12.013 0 0 0 -12-12h-48a12 12 0 0 1 0-24h48a36.04 36.04 0 0 1 36 36v24a12 12 0 0 1 -12 12z" fill="#ebe6f4"/><rect fill="url(#New_Gradient_Swatch_10)" height="96" rx="12" width="60" x="444" y="148"/><path d="m40 172a12 12 0 0 1 -12-12v-24a36.04 36.04 0 0 1 36-36h48a12 12 0 0 1 0 24h-48a12.013 12.013 0 0 0 -12 12v24a12 12 0 0 1 -12 12z" fill="#ebe6f4"/><rect fill="url(#New_Gradient_Swatch_10-2)" height="96" rx="12" width="60" x="8" y="148"/><path d="m312 64h-112l16-48h80z" fill="url(#New_Gradient_Swatch_17)"/><path d="m312 76h-112a12 12 0 0 1 -11.384-15.8l16-48a12 12 0 0 1 11.384-8.2h80a12 12 0 0 1 11.384 8.205l16 48a12 12 0 0 1 -11.384 15.795zm-95.351-24h78.7l-8-24h-62.7z" fill="#d7cdea"/><path d="m448.485 279.515-36.485-36.486v-147.029a44.049 44.049 0 0 0 -44-44h-224a44.049 44.049 0 0 0 -44 44v147.029l-36.485 36.486a12 12 0 0 0 -3.515 8.485v104a12 12 0 0 0 12 12h368a12 12 0 0 0 12-12v-104a12 12 0 0 0 -3.515-8.485z" fill="url(#New_Gradient_Swatch_10-3)"/><path d="m100 100h312v144h-312z" fill="url(#New_Gradient_Swatch_6)"/><circle cx="380" cy="320" fill="url(#New_Gradient_Swatch_17-2)" r="24"/><path d="m380 356a36 36 0 1 1 36-36 36.04 36.04 0 0 1 -36 36zm0-48a12 12 0 1 0 12 12 12.013 12.013 0 0 0 -12-12z" fill="#fad55c"/><circle cx="132" cy="320" fill="url(#New_Gradient_Swatch_17-3)" r="24"/><g fill="#fad55c"><path d="m132 356a36 36 0 1 1 36-36 36.04 36.04 0 0 1 -36 36zm0-48a12 12 0 1 0 12 12 12.013 12.013 0 0 0 -12-12z"/><path d="m304 308h-96a12 12 0 0 1 0-24h96a12 12 0 0 1 0 24z"/><path d="m304 356h-96a12 12 0 0 1 0-24h96a12 12 0 0 1 0 24z"/></g><rect fill="url(#New_Gradient_Swatch_17-4)" height="56" rx="12" width="440" x="36" y="388"/></g></svg>