<svg height="512" viewBox="0 0 512 512" width="512" xmlns="http://www.w3.org/2000/svg" xmlns:xlink="http://www.w3.org/1999/xlink"><linearGradient id="New_Gradient_Swatch_10" gradientUnits="userSpaceOnUse" x1="308.516" x2="417.94" y1="442.712" y2="333.288"><stop offset=".015" stop-color="#fbde7d"/><stop offset="1" stop-color="#fdeebe"/></linearGradient><linearGradient id="New_Gradient_Swatch_1" gradientUnits="userSpaceOnUse" x1="-2.485" x2="258.485" y1="494.485" y2="233.515"><stop offset=".015" stop-color="#8ae4c8"/><stop offset="1" stop-color="#e2f8f1"/></linearGradient><linearGradient id="New_Gradient_Swatch_2" gradientUnits="userSpaceOnUse" x1="63.838" x2="192.162" y1="295.516" y2="167.192"><stop offset=".015" stop-color="#af9cd4"/><stop offset="1" stop-color="#ebe6f4"/></linearGradient><linearGradient id="New_Gradient_Swatch_12" gradientUnits="userSpaceOnUse" x1="105.373" x2="150.627" y1="334.627" y2="289.373"><stop offset=".015" stop-color="#d7cdea"/><stop offset="1" stop-color="#ebe6f4"/></linearGradient><linearGradient id="New_Gradient_Swatch_6" gradientUnits="userSpaceOnUse" x1="80.538" x2="175.636" y1="504.538" y2="409.44"><stop offset=".015" stop-color="#c4f2e3"/><stop offset="1" stop-color="#e2f8f1"/></linearGradient><g id="_13-playground" data-name="13-playground"><g id="gradient"><path d="m441.368 420-75.289-130.045a44.13 44.13 0 0 0 -38.079-21.955h-88a44 44 0 0 0 0 88h62.632l75.289 130.045a44.13 44.13 0 0 0 38.079 21.955h88.652v-88z" fill="url(#New_Gradient_Swatch_10)"/><rect fill="url(#New_Gradient_Swatch_1)" height="288" rx="12" width="248" x="4" y="220"/><path d="m248.485 223.515-112-112a12 12 0 0 0 -16.97 0l-112 112a12 12 0 0 0 -2.6 13.077h246.171a12 12 0 0 0 -2.601-13.077z" fill="url(#New_Gradient_Swatch_2)"/><circle cx="128" cy="312" fill="url(#New_Gradient_Swatch_12)" r="32"/><path d="m128 356a44 44 0 1 1 44-44 44.049 44.049 0 0 1 -44 44zm0-64a20 20 0 1 0 20 20 20.023 20.023 0 0 0 -20-20z" fill="#e2f8f1"/><path d="m128.765 380.007c-24.617-.422-44.765 20.152-44.765 44.773v83.22h88v-84a44.051 44.051 0 0 0 -43.235-43.993z" fill="url(#New_Gradient_Swatch_6)"/></g></g></svg>