<svg height="512" viewBox="0 0 512 512" width="512" xmlns="http://www.w3.org/2000/svg" xmlns:xlink="http://www.w3.org/1999/xlink"><linearGradient id="New_Gradient_Swatch_16" gradientUnits="userSpaceOnUse" x1="86.059" x2="313.941" y1="241.941" y2="14.059"><stop offset=".015" stop-color="#fdeebe"/><stop offset="1" stop-color="#fef7de"/></linearGradient><linearGradient id="New_Gradient_Swatch_4" gradientUnits="userSpaceOnUse" x1="14.059" x2="241.941" y1="497.941" y2="270.059"><stop offset=".015" stop-color="#fb9d8d"/><stop offset="1" stop-color="#fee7e2"/></linearGradient><linearGradient id="New_Gradient_Swatch_6" gradientUnits="userSpaceOnUse" x1="270.059" x2="497.941" y1="497.941" y2="270.059"><stop offset=".015" stop-color="#c4f2e3"/><stop offset="1" stop-color="#e2f8f1"/></linearGradient><g id="_14-game" data-name="14-game"><g id="gradient"><rect fill="url(#New_Gradient_Swatch_16)" height="256" rx="48" width="256" x="72"/><path d="m251.208 171.428-40-96a12 12 0 0 0 -22.155 0l-40 96a12 12 0 1 0 22.155 9.231l6.922-16.616h44l6.923 16.616a12 12 0 1 0 22.155-9.231zm-63.078-31.385 12-28.8 12 28.8z" fill="#fbde7d"/><rect fill="url(#New_Gradient_Swatch_4)" height="256" rx="48" width="256" y="256"/><path d="m171.13 360.043a36.041 36.041 0 0 0 -36-36h-40a12 12 0 0 0 -12 12v96a12 12 0 0 0 12 12h40a35.977 35.977 0 0 0 26.8-60 35.846 35.846 0 0 0 9.2-24zm-64-12h28a12 12 0 0 1 0 24h-28zm28 72h-28v-24h28a12 12 0 0 1 0 24z" fill="#fb9d8d"/><rect fill="url(#New_Gradient_Swatch_6)" height="256" rx="48" width="256" x="256" y="256"/><path d="m416.13 443.043h-32a44.05 44.05 0 0 1 -44-44v-32a44.051 44.051 0 0 1 44-44h32a12 12 0 0 1 0 24h-32a20.024 20.024 0 0 0 -20 20v32a20.023 20.023 0 0 0 20 20h32a12 12 0 0 1 0 24z" fill="#8ae4c8"/></g></g></svg>