<svg height="512" viewBox="0 0 512 512" width="512" xmlns="http://www.w3.org/2000/svg" xmlns:xlink="http://www.w3.org/1999/xlink"><linearGradient id="New_Gradient_Swatch_15" gradientUnits="userSpaceOnUse" x1="144" x2="192" y1="236" y2="236"><stop offset=".015" stop-color="#ebe6f4"/><stop offset="1" stop-color="#f5f3fa"/></linearGradient><linearGradient id="New_Gradient_Swatch_16" gradientUnits="userSpaceOnUse" x1="94.766" x2="241.234" y1="188.963" y2="42.495"><stop offset=".015" stop-color="#fdeebe"/><stop offset="1" stop-color="#fef7de"/></linearGradient><linearGradient id="New_Gradient_Swatch_2" gradientUnits="userSpaceOnUse" x1="93.248" x2="242.752" y1="454.752" y2="305.248"><stop offset=".015" stop-color="#af9cd4"/><stop offset="1" stop-color="#ebe6f4"/></linearGradient><linearGradient id="New_Gradient_Swatch_15-2" x1="328" x2="376" xlink:href="#New_Gradient_Swatch_15"/><linearGradient id="New_Gradient_Swatch_16-2" x1="272.208" x2="431.792" xlink:href="#New_Gradient_Swatch_16" y1="174.405" y2="14.821"/><linearGradient id="New_Gradient_Swatch_2-2" x1="277.248" x2="426.752" xlink:href="#New_Gradient_Swatch_2" y1="454.752" y2="305.248"/><g id="_17-fork_spoon" data-name="17-fork spoon"><g id="gradient"><path d="m192 280h-48l8-88h32z" fill="url(#New_Gradient_Swatch_15)"/><path d="m168 4a84.1 84.1 0 0 0 -84 84v72a44.049 44.049 0 0 0 44 44h80a44.049 44.049 0 0 0 44-44v-72a84.1 84.1 0 0 0 -84-84z" fill="url(#New_Gradient_Swatch_16)"/><path d="m168 252a52.059 52.059 0 0 0 -52 52v152a52 52 0 0 0 104 0v-152a52.059 52.059 0 0 0 -52-52z" fill="url(#New_Gradient_Swatch_2)"/><path d="m376 280h-48l8-88h32z" fill="url(#New_Gradient_Swatch_15-2)"/><path d="m416 4a12 12 0 0 0 -12 12v84h-40v-84a12 12 0 0 0 -24 0v84h-40v-84a12 12 0 0 0 -24 0v144a44.049 44.049 0 0 0 44 44h64a44.049 44.049 0 0 0 44-44v-144a12 12 0 0 0 -12-12z" fill="url(#New_Gradient_Swatch_16-2)"/><path d="m352 252a52.059 52.059 0 0 0 -52 52v152a52 52 0 0 0 104 0v-152a52.059 52.059 0 0 0 -52-52z" fill="url(#New_Gradient_Swatch_2-2)"/></g></g></svg>