<svg height="512" viewBox="0 0 512 512" width="512" xmlns="http://www.w3.org/2000/svg" xmlns:xlink="http://www.w3.org/1999/xlink"><linearGradient id="New_Gradient_Swatch_6" gradientUnits="userSpaceOnUse" x1="98.897" x2="413.103" y1="480.151" y2="165.944"><stop offset=".015" stop-color="#c4f2e3"/><stop offset="1" stop-color="#e2f8f1"/></linearGradient><linearGradient id="New_Gradient_Swatch_2" gradientUnits="userSpaceOnUse" x1="163.515" x2="348.485" y1="280.485" y2="95.514"><stop offset=".015" stop-color="#af9cd4"/><stop offset="1" stop-color="#ebe6f4"/></linearGradient><g id="_18-water" data-name="18-water"><g id="gradient"><path d="m456 232h-64.3l-135.2-16-137.152 16h-63.348a56.063 56.063 0 0 0 -56 56v50.022a56.337 56.337 0 0 0 35.9 52.268l68.1 26.193v55.517a32 32 0 0 0 32 32h240a32 32 0 0 0 32-32v-55.517l68.1-26.193a56.337 56.337 0 0 0 35.9-52.268v-50.022a56.063 56.063 0 0 0 -56-56zm-402.872 113.489a8.047 8.047 0 0 1 -5.128-7.467v-50.022a8.009 8.009 0 0 1 8-8h48v85.055zm410.872-7.467a8.047 8.047 0 0 1 -5.128 7.467l-50.872 19.566v-85.055h48a8.009 8.009 0 0 1 8 8z" fill="url(#New_Gradient_Swatch_6)"/><path d="m377.521 136.929c-9.111-3.949-18.37-5.474-27.324-6.949-19.359-3.19-32.149-5.3-38.55-28.629-3.435-12.524-11.832-51.485-11.916-51.876a12 12 0 0 0 -11.731-9.475h-64a12 12 0 0 0 -11.731 9.475c-.084.391-8.481 39.352-11.916 51.876-6.4 23.332-19.191 25.439-38.55 28.629-8.954 1.475-18.213 3-27.324 6.949a43.952 43.952 0 0 0 -26.479 40.36v42.711a12 12 0 0 0 12 12h272a12 12 0 0 0 12-12v-42.711a43.952 43.952 0 0 0 -26.479-40.36z" fill="url(#New_Gradient_Swatch_2)"/><g fill="#8ae4c8"><path d="m280 348h-48a12 12 0 0 1 0-24h48a12 12 0 0 1 0 24z"/><path d="m280 300h-48a12 12 0 0 1 0-24h48a12 12 0 0 1 0 24z"/><path d="m280 396h-48a12 12 0 0 1 0-24h48a12 12 0 0 1 0 24z"/><path d="m280 444h-48a12 12 0 0 1 0-24h48a12 12 0 0 1 0 24z"/></g></g></g></svg>