<svg height="512" viewBox="0 0 512 512" width="512" xmlns="http://www.w3.org/2000/svg" xmlns:xlink="http://www.w3.org/1999/xlink"><linearGradient id="New_Gradient_Swatch_10" gradientUnits="userSpaceOnUse" x1="17.514" x2="146.485" y1="242.486" y2="113.514"><stop offset=".015" stop-color="#fbde7d"/><stop offset="1" stop-color="#fdeebe"/></linearGradient><linearGradient id="New_Gradient_Swatch_15" gradientUnits="userSpaceOnUse" x1="149.515" x2="405.911" y1="326.485" y2="70.089"><stop offset=".015" stop-color="#ebe6f4"/><stop offset="1" stop-color="#f5f3fa"/></linearGradient><linearGradient id="New_Gradient_Swatch_9" gradientUnits="userSpaceOnUse" x1="110.272" x2="366.669" y1="287.243" y2="30.846"><stop offset=".015" stop-color="#ffb676"/><stop offset="1" stop-color="#ffdbbb"/></linearGradient><linearGradient id="New_Gradient_Swatch_7" gradientUnits="userSpaceOnUse" x1="109.11" x2="270.581" y1="335.081" y2="173.61"><stop offset=".015" stop-color="#9c83c9"/><stop offset="1" stop-color="#c3b5df"/></linearGradient><g id="_19-rocket" data-name="19-rocket"><g id="gradient"><path d="m256 508a12 12 0 0 1 -12-12v-40a12 12 0 0 1 4.8-9.6l14.475-10.856-43.488-16.308a12 12 0 0 1 0-22.472l34.037-12.764-34.037-12.764a12 12 0 0 1 0-22.472l43.488-16.308-14.475-10.856a12 12 0 0 1 -4.8-9.6v-48a12 12 0 0 1 24 0v42l27.2 20.4a12 12 0 0 1 -2.987 20.836l-34.037 12.764 34.037 12.764a12 12 0 0 1 0 22.472l-34.037 12.764 34.037 12.764a12 12 0 0 1 2.987 20.836l-27.2 20.4v34a12 12 0 0 1 -12 12z" fill="#d7cdea"/><path d="m110.125 77.682a12 12 0 0 0 -11.871-.217l-88 48a12 12 0 0 0 -6.254 10.535v88a12 12 0 0 0 7.034 10.925l88 40a12 12 0 0 0 16.966-10.925v-176a12 12 0 0 0 -5.875-10.318z" fill="url(#New_Gradient_Swatch_10)"/><path d="m344 76h-24a12 12 0 0 0 -12 12 68 68 0 0 1 -136 0 12 12 0 0 0 -12-12h-56a12 12 0 0 0 -12 12v176a12 12 0 0 0 12 12h392a12 12 0 0 0 12-12v-24c0-90.43-73.57-164-164-164z" fill="url(#New_Gradient_Swatch_15)"/><path d="m320 76a12 12 0 0 0 -12 12 68 68 0 0 1 -136 0 12 12 0 0 0 -12-12h-56a12 12 0 0 0 -12 12v176a12 12 0 0 0 12 12h240v-200z" fill="url(#New_Gradient_Swatch_9)"/><path d="m307.082 211.4a12 12 0 0 0 -11.082-7.4h-136a12 12 0 0 0 -11.269 7.875l-41 112a12 12 0 0 0 11.269 16.125h35.62a83.725 83.725 0 0 0 57.315-22.592c.107-.1.212-.2.315-.3l92.25-92.64a12 12 0 0 0 2.582-13.068z" fill="url(#New_Gradient_Swatch_7)"/></g></g></svg>