<svg height="512" viewBox="0 0 512 512" width="512" xmlns="http://www.w3.org/2000/svg" xmlns:xlink="http://www.w3.org/1999/xlink"><linearGradient id="New_Gradient_Swatch_14" gradientUnits="userSpaceOnUse" x1="169.514" x2="342.486" y1="426.485" y2="253.514"><stop offset=".015" stop-color="#ffdbbb"/><stop offset="1" stop-color="#ffeddd"/></linearGradient><linearGradient id="New_Gradient_Swatch_4" gradientUnits="userSpaceOnUse" x1="225.514" x2="286.485" y1="90.485" y2="29.515"><stop offset=".015" stop-color="#fb9d8d"/><stop offset="1" stop-color="#fee7e2"/></linearGradient><linearGradient id="New_Gradient_Swatch_4-2" x1="211.716" x2="300.284" xlink:href="#New_Gradient_Swatch_4" y1="140.284" y2="51.716"/><linearGradient id="New_Gradient_Swatch_4-3" x1="190.059" x2="321.941" xlink:href="#New_Gradient_Swatch_4" y1="249.941" y2="118.059"/><linearGradient id="New_Gradient_Swatch_4-4" x1="178.059" x2="333.941" xlink:href="#New_Gradient_Swatch_4" y1="357.941" y2="202.059"/><g id="_20-ice_cream" data-name="20-ice cream"><g id="gradient"><path d="m362.062 273.461a12 12 0 0 0 -10.062-5.461h-192a12 12 0 0 0 -10.966 16.874l96 216a12 12 0 0 0 21.932 0l96-216a12 12 0 0 0 -.904-11.413z" fill="url(#New_Gradient_Swatch_14)"/><path d="m296.792 382.872 26.008-53.637a12 12 0 0 0 -21.6-10.47l-17.756 36.625-14.1-29.037 28.339-58.353h-26.683l-15 30.887-15-30.887h-26.683l28.342 58.353-14.1 29.037-17.759-36.625a12 12 0 1 0 -21.6 10.47l26.006 53.637-11.806 24.317 12.749 28.684 12.391-25.511 14.124 29.138-12.995 26.8 12.756 28.7 13.575-28 13.575 28 12.756-28.7-13-26.8 14.128-29.138 12.391 25.511 12.75-28.684zm-40.792 29.122-14.116-29.113 14.116-29.062 14.116 29.062z" fill="#ffc898"/><path d="m299.969 71.132c-1.329-18.316-12.483-38.4-35.1-63.216a12 12 0 0 0 -20.869 8.084c0 19.748-8.623 34.737-26.36 45.824a12 12 0 0 0 6.36 22.176h64a12 12 0 0 0 11.969-12.868z" fill="url(#New_Gradient_Swatch_4)"/><path d="m288 56h-64a40 40 0 0 0 0 80l32 8 32-8a40 40 0 0 0 0-80z" fill="url(#New_Gradient_Swatch_4-2)"/><path d="m320 136h-128a48 48 0 0 0 0 96l64 8 64-8a48 48 0 0 0 0-96z" fill="url(#New_Gradient_Swatch_4-3)"/><path d="m344 232h-176a48 48 0 0 0 0 96h176a48 48 0 0 0 0-96z" fill="url(#New_Gradient_Swatch_4-4)"/></g></g></svg>