<svg height="512" viewBox="0 0 512 512" width="512" xmlns="http://www.w3.org/2000/svg" xmlns:xlink="http://www.w3.org/1999/xlink"><linearGradient id="New_Gradient_Swatch_14" gradientUnits="userSpaceOnUse" x1="203.515" x2="308.485" y1="156.485" y2="51.515"><stop offset=".015" stop-color="#ffdbbb"/><stop offset="1" stop-color="#ffeddd"/></linearGradient><linearGradient id="New_Gradient_Swatch_13" gradientUnits="userSpaceOnUse" x1="135" x2="377" y1="447" y2="205"><stop offset=".015" stop-color="#8ae4c8"/><stop offset="1" stop-color="#a7ebd6"/></linearGradient><linearGradient id="New_Gradient_Swatch_10" gradientUnits="userSpaceOnUse" x1="244" x2="268" y1="320" y2="320"><stop offset=".015" stop-color="#fbde7d"/><stop offset="1" stop-color="#fdeebe"/></linearGradient><linearGradient id="New_Gradient_Swatch_7" gradientUnits="userSpaceOnUse" x1="171.882" x2="276.853" y1="124.853" y2="19.882"><stop offset=".015" stop-color="#9c83c9"/><stop offset="1" stop-color="#c3b5df"/></linearGradient><linearGradient id="New_Gradient_Swatch_14-2" x1="367.515" x2="472.485" xlink:href="#New_Gradient_Swatch_14" y1="264.485" y2="159.515"/><linearGradient id="New_Gradient_Swatch_10-2" x1="326" x2="514" xlink:href="#New_Gradient_Swatch_10" y1="474" y2="286"/><linearGradient id="New_Gradient_Swatch_7-2" x1="335.882" x2="440.853" xlink:href="#New_Gradient_Swatch_7" y1="232.853" y2="127.882"/><linearGradient id="New_Gradient_Swatch_14-3" gradientTransform="matrix(-1 0 0 1 512 0)" x1="472.485" x2="367.515" xlink:href="#New_Gradient_Swatch_14" y1="264.485" y2="159.515"/><linearGradient id="New_Gradient_Swatch_10-3" gradientTransform="matrix(-1 0 0 1 512 0)" x1="514" x2="326" xlink:href="#New_Gradient_Swatch_10" y1="474" y2="286"/><linearGradient id="New_Gradient_Swatch_7-3" gradientTransform="matrix(-1 0 0 1 512 0)" x1="504.118" x2="399.147" xlink:href="#New_Gradient_Swatch_7" y1="232.853" y2="127.882"/><g id="_02-pencil" data-name="02-pencil"><g id="gradient"><path d="m315.236 139.787-48-128a12 12 0 0 0 -22.472 0l-48 128a12 12 0 0 0 11.236 16.213h96a12 12 0 0 0 11.236-16.213z" fill="url(#New_Gradient_Swatch_14)"/><path d="m196 144h120v364h-120z" fill="url(#New_Gradient_Swatch_13)"/><path d="m244 132h24v376h-24z" fill="url(#New_Gradient_Swatch_10)"/><path d="m267.236 11.787a12 12 0 0 0 -22.472 0l-16.205 43.213h54.882z" fill="url(#New_Gradient_Swatch_7)"/><path d="m479.236 247.787-48-128a12 12 0 0 0 -22.472 0l-48 128a12 12 0 0 0 11.236 16.213h96a12 12 0 0 0 11.236-16.213z" fill="url(#New_Gradient_Swatch_14-2)"/><path d="m360 252h120v256h-120z" fill="url(#New_Gradient_Swatch_10-2)"/><path d="m408 252h24v256h-24z" fill="#fb9d8d"/><path d="m431.236 119.787a12 12 0 0 0 -22.472 0l-16.205 43.213h54.882z" fill="url(#New_Gradient_Swatch_7-2)"/><path d="m32.764 247.787 48-128a12 12 0 0 1 22.472 0l48 128a12 12 0 0 1 -11.236 16.213h-96a12 12 0 0 1 -11.236-16.213z" fill="url(#New_Gradient_Swatch_14-3)"/><path d="m32 252h120v256h-120z" fill="url(#New_Gradient_Swatch_10-3)"/><path d="m80 252h24v256h-24z" fill="#fb9d8d"/><path d="m80.764 119.787a12 12 0 0 1 22.472 0l16.205 43.213h-54.882z" fill="url(#New_Gradient_Swatch_7-3)"/></g></g></svg>