<svg height="512" viewBox="0 0 512 512" width="512" xmlns="http://www.w3.org/2000/svg" xmlns:xlink="http://www.w3.org/1999/xlink"><linearGradient id="New_Gradient_Swatch_12" gradientUnits="userSpaceOnUse" x1="173.458" x2="382.55" y1="342.407" y2="133.315"><stop offset=".015" stop-color="#d7cdea"/><stop offset="1" stop-color="#ebe6f4"/></linearGradient><linearGradient id="New_Gradient_Swatch_13" gradientUnits="userSpaceOnUse" x1="86.977" x2="217.023" y1="481.023" y2="350.977"><stop offset=".015" stop-color="#8ae4c8"/><stop offset="1" stop-color="#a7ebd6"/></linearGradient><linearGradient id="New_Gradient_Swatch_10" gradientUnits="userSpaceOnUse" x1="107.757" x2="404.243" y1="228.728" y2="-67.757"><stop offset=".015" stop-color="#fbde7d"/><stop offset="1" stop-color="#fdeebe"/></linearGradient><linearGradient id="New_Gradient_Swatch_15" gradientUnits="userSpaceOnUse" x1="191.045" x2="283.912" y1="287.809" y2="194.941"><stop offset=".015" stop-color="#ebe6f4"/><stop offset="1" stop-color="#f5f3fa"/></linearGradient><linearGradient id="New_Gradient_Swatch_13-2" x1="268" x2="452" xlink:href="#New_Gradient_Swatch_13" y1="416" y2="416"/><linearGradient id="New_Gradient_Swatch_16" gradientUnits="userSpaceOnUse" x1="298" x2="338.485" y1="130" y2="89.515"><stop offset=".015" stop-color="#fdeebe"/><stop offset="1" stop-color="#fef7de"/></linearGradient><linearGradient id="New_Gradient_Swatch_7" gradientUnits="userSpaceOnUse" x1="233.373" x2="278.627" y1="310.627" y2="265.373"><stop offset=".015" stop-color="#9c83c9"/><stop offset="1" stop-color="#c3b5df"/></linearGradient><g id="_22-scissor" data-name="22-scissor"><g id="gradient"><path d="m371.239 127.742a151.53 151.53 0 0 0 -27.429-32.853 12 12 0 0 0 -17.948 2.69l-152 240a12.025 12.025 0 0 0 -1.546 3.687c19.265 12.006 38.5 24.477 55.681 39.439 40.589-41.537 131.369-136.6 150.736-175.339 11.759-23.517 9.167-50.359-7.494-77.624z" fill="url(#New_Gradient_Swatch_12)"/><path d="m152 324a92 92 0 1 0 92 92 92.1 92.1 0 0 0 -92-92zm0 136a44 44 0 1 1 44-44 44.049 44.049 0 0 1 -44 44z" fill="url(#New_Gradient_Swatch_13)"/><path d="m40 0v156a12 12 0 0 0 12 12h192a12 12 0 0 0 12-12v-68c30.906 28.127 56.659 51.866 88 80h116a12 12 0 0 0 12-12v-156z" fill="url(#New_Gradient_Swatch_10)"/><path d="m338.138 337.579-152-240a12 12 0 0 0 -17.948-2.69 151.53 151.53 0 0 0 -27.429 32.853c-16.661 27.265-19.253 54.107-7.494 77.624 19.828 39.656 114.51 138.361 153.547 178.212 16.189-7.465 31.1-17.754 48.689-24.14l3.881-11.643a12 12 0 0 0 -1.246-10.216z" fill="url(#New_Gradient_Swatch_15)"/><path d="m360 324a92 92 0 1 0 92 92 92.1 92.1 0 0 0 -92-92zm0 136a44 44 0 1 1 44-44 44.049 44.049 0 0 1 -44 44z" fill="url(#New_Gradient_Swatch_13-2)"/><path d="m256 88h76a12 12 0 0 1 12 12v68z" fill="url(#New_Gradient_Swatch_16)"/><circle cx="256" cy="288" fill="url(#New_Gradient_Swatch_7)" r="32"/></g></g></svg>