<svg height="512" viewBox="0 0 512 512" width="512" xmlns="http://www.w3.org/2000/svg" xmlns:xlink="http://www.w3.org/1999/xlink"><linearGradient id="New_Gradient_Swatch_4" gradientUnits="userSpaceOnUse" x1="131.515" x2="440.486" y1="308.485" y2="-.486"><stop offset=".015" stop-color="#fb9d8d"/><stop offset="1" stop-color="#fee7e2"/></linearGradient><linearGradient id="New_Gradient_Swatch_5" gradientUnits="userSpaceOnUse" x1="148.894" x2="288.99" y1="347.937" y2="207.842"><stop offset=".015" stop-color="#fb9d8d"/><stop offset="1" stop-color="#fdcec6"/></linearGradient><linearGradient id="New_Gradient_Swatch_11" gradientUnits="userSpaceOnUse" x1="274.993" x2="486.963" y1="257.993" y2="46.023"><stop offset=".015" stop-color="#fdcec6"/><stop offset="1" stop-color="#fee7e2"/></linearGradient><linearGradient id="New_Gradient_Swatch_11-2" x1="135.521" x2="400.512" xlink:href="#New_Gradient_Swatch_11" y1="224.493" y2="-40.497"/><g id="_23-paper" data-name="23-paper"><g id="gradient"><path d="m506.655 66.479a12 12 0 0 0 -13.812-6.056l-352 96a12 12 0 0 0 -8.631 13.822l32 168a12 12 0 0 0 19.425 7.012l320-264a12 12 0 0 0 3.018-14.778z" fill="url(#New_Gradient_Swatch_4)"/><path d="m506.136 65.577c-3.236-5.11-130.136 62.423-130.136 62.423s-144 62-163.315 68.006c0 0-36.809 131.159-41.685 150.994 2.071 1.448 2.6 1 5 1a11.988 11.988 0 0 0 7.638-2.743l320-264a12 12 0 0 0 2.498-15.68z" fill="url(#New_Gradient_Swatch_5)"/><path d="m504.974 64.033c-44.974 19.967-291.974 131.967-291.974 131.967 16 8 158.344 79.06 158.344 79.06a11.992 11.992 0 0 0 14.832-4.7l120-192a12 12 0 0 0 -1.202-14.327z" fill="url(#New_Gradient_Swatch_11)"/><path d="m134 176 371-112c-2-2-4.075-4.6-10.278-3.932l-448 48a12 12 0 0 0 -4.088 22.665z" fill="url(#New_Gradient_Swatch_11-2)"/><path d="m23.985 508a12 12 0 0 1 -11.9-10.59c-.2-1.7-4.665-41.968 18.316-72.611a74.239 74.239 0 0 1 34.807-25.352 95.846 95.846 0 0 1 6.647-13.339c12.479-20.727 31.718-34.2 54.174-37.946a12 12 0 1 1 3.946 23.674c-18.643 3.107-29.995 14.864-36.448 24.864a44.347 44.347 0 0 1 6.431 1.611c15.055 5.021 24.042 17.614 24.042 33.689 0 24.6-14.987 38.042-29.84 40.452-14.891 2.42-28.684-6.079-33.544-20.657a59.12 59.12 0 0 1 -2.468-21.449 49.69 49.69 0 0 0 -8.548 8.854c-17.283 23.044-13.721 55.068-13.683 55.389a12.006 12.006 0 0 1 -11.932 13.411zm59.727-87.98c-2.26 9.75-2.187 18.608-.328 24.184 1.564 4.692 5.021 4.868 6.931 4.557 4.468-.724 9.685-5.549 9.685-16.761 0-5.791-2.354-9.158-7.632-10.918a24.262 24.262 0 0 0 -8.656-1.061z" fill="#fdeebe"/></g></g></svg>