<svg height="512" viewBox="0 0 512 512" width="512" xmlns="http://www.w3.org/2000/svg" xmlns:xlink="http://www.w3.org/1999/xlink"><linearGradient id="New_Gradient_Swatch_10" gradientUnits="userSpaceOnUse" x1="107.225" x2="375.274" y1="394.352" y2="126.304"><stop offset=".015" stop-color="#fbde7d"/><stop offset="1" stop-color="#fdeebe"/></linearGradient><linearGradient id="New_Gradient_Swatch_12" gradientUnits="userSpaceOnUse" x1="90.745" x2="181.255" y1="477.255" y2="386.745"><stop offset=".015" stop-color="#d7cdea"/><stop offset="1" stop-color="#ebe6f4"/></linearGradient><linearGradient id="New_Gradient_Swatch_12-2" x1="378.745" x2="469.255" xlink:href="#New_Gradient_Swatch_12" y1="477.255" y2="386.745"/><linearGradient id="New_Gradient_Swatch_9" gradientUnits="userSpaceOnUse" x1="26.514" x2="91.636" y1="238.486" y2="173.364"><stop offset=".015" stop-color="#ffb676"/><stop offset="1" stop-color="#ffdbbb"/></linearGradient><linearGradient id="New_Gradient_Swatch_9-2" x1="223.246" x2="336.754" xlink:href="#New_Gradient_Swatch_9" y1="377.292" y2="263.784"/><linearGradient id="New_Gradient_Swatch_7" gradientUnits="userSpaceOnUse" x1="135.029" x2="168.971" y1="152.971" y2="119.029"><stop offset=".015" stop-color="#9c83c9"/><stop offset="1" stop-color="#c3b5df"/></linearGradient><g id="_24-duck" data-name="24-duck"><g id="gradient"><path d="m488 244h-196v-100a116 116 0 0 0 -232 0v112a220 220 0 0 0 375.563 155.563 218.556 218.556 0 0 0 64.437-155.563 12 12 0 0 0 -12-12z" fill="url(#New_Gradient_Swatch_10)"/><circle cx="136" cy="432" fill="url(#New_Gradient_Swatch_12)" r="64"/><path d="m136 508a76 76 0 1 1 76-76 76.087 76.087 0 0 1 -76 76zm0-128a52 52 0 1 0 52 52 52.059 52.059 0 0 0 -52-52z" fill="#c3b5df"/><circle cx="424" cy="432" fill="url(#New_Gradient_Swatch_12-2)" r="64"/><path d="m424 508a76 76 0 1 1 76-76 76.087 76.087 0 0 1 -76 76zm0-128a52 52 0 1 0 52 52 52.059 52.059 0 0 0 -52-52z" fill="#c3b5df"/><path d="m111.419 202.046s-48.259-61.175-50.9-58.531l-56 56a12 12 0 0 0 8.481 20.485h88a12 12 0 0 0 10.419-17.954z" fill="url(#New_Gradient_Swatch_9)"/><path d="m360 292h-160a12 12 0 0 0 -12 12 92 92 0 0 0 184 0 12 12 0 0 0 -12-12z" fill="url(#New_Gradient_Swatch_9-2)"/><circle cx="136" cy="432" fill="#af9cd4" r="12"/><circle cx="424" cy="432" fill="#af9cd4" r="12"/><circle cx="152" cy="136" fill="url(#New_Gradient_Swatch_7)" r="24"/></g></g></svg>