<svg height="512" viewBox="0 0 512 512" width="512" xmlns="http://www.w3.org/2000/svg" xmlns:xlink="http://www.w3.org/1999/xlink"><linearGradient id="New_Gradient_Swatch_17" gradientUnits="userSpaceOnUse" x1="43.514" x2="468.486" y1="468.486" y2="43.514"><stop offset=".015" stop-color="#fef7de"/><stop offset="1" stop-color="#fefbef"/></linearGradient><g id="_25-sleep" data-name="25-sleep"><g id="gradient"><path d="m484.5 376.051c4.656-16.022 23.5-83.083 23.5-120.051s-18.844-104.029-23.5-120.051l15.038-52.649a12 12 0 0 0 -16.905-14.03l-44.593 22.3c-19.601-2.935-108.425-15.57-182.04-15.57s-162.439 12.635-182.04 15.563l-44.593-22.3a12 12 0 0 0 -16.9 14.03l15.043 52.652c-4.666 16.026-23.51 83.087-23.51 120.055s18.844 104.029 23.505 120.051l-15.043 52.649a12 12 0 0 0 16.905 14.03l44.593-22.3c19.601 2.935 108.425 15.57 182.04 15.57s162.439-12.635 182.04-15.563l44.593 22.3a12 12 0 0 0 16.905-14.03z" fill="url(#New_Gradient_Swatch_17)"/><path d="m200 364h-88a12 12 0 0 1 -8.846-20.108l69.567-75.892h-60.721a12 12 0 0 1 0-24h88a12 12 0 0 1 8.846 20.108l-69.567 75.892h60.721a12 12 0 0 1 0 24z" fill="#c3b5df"/><path d="m296 284h-56a12 12 0 0 1 -9.472-19.367l40.936-52.633h-31.464a12 12 0 0 1 0-24h56a12 12 0 0 1 9.472 19.367l-40.936 52.633h31.464a12 12 0 0 1 0 24z" fill="#d7cdea"/><path d="m392 236h-56a12 12 0 0 1 -9.472-19.367l40.936-52.633h-31.464a12 12 0 0 1 0-24h56a12 12 0 0 1 9.472 19.367l-40.936 52.633h31.464a12 12 0 0 1 0 24z" fill="#c3b5df"/></g></g></svg>