<svg height="512" viewBox="0 0 512 512" width="512" xmlns="http://www.w3.org/2000/svg" xmlns:xlink="http://www.w3.org/1999/xlink"><linearGradient id="New_Gradient_Swatch_1" gradientUnits="userSpaceOnUse" x1="13.787" x2="304.213" y1="498.213" y2="207.787"><stop offset=".015" stop-color="#8ae4c8"/><stop offset="1" stop-color="#e2f8f1"/></linearGradient><linearGradient id="New_Gradient_Swatch_2" gradientUnits="userSpaceOnUse" x1="217.961" x2="432.562" y1="294.727" y2="80.127"><stop offset=".015" stop-color="#af9cd4"/><stop offset="1" stop-color="#ebe6f4"/></linearGradient><linearGradient id="New_Gradient_Swatch_10" gradientUnits="userSpaceOnUse" x1="443" x2="503" y1="41" y2="41"><stop offset=".015" stop-color="#fbde7d"/><stop offset="1" stop-color="#fdeebe"/></linearGradient><linearGradient id="New_Gradient_Swatch_10-2" x1="386" x2="446" xlink:href="#New_Gradient_Swatch_10" y1="362" y2="362"/><linearGradient id="New_Gradient_Swatch_10-3" x1="82" x2="142" xlink:href="#New_Gradient_Swatch_10" y1="112" y2="112"/><g id="_26-star" data-name="26-star"><g id="gradient"><path d="m304.213 207.787a30.033 30.033 0 0 0 -42.426 0l-248 248a30 30 0 1 0 42.426 42.426l248-248a30.033 30.033 0 0 0 0-42.426z" fill="url(#New_Gradient_Swatch_1)"/><path d="m462.106 260.823-57.587-77.17 30.922-91.187a12 12 0 0 0 -15.218-15.218l-91.188 30.922-77.169-57.588a12 12 0 0 0 -19.176 9.771l1.23 96.28-78.62 55.597a12 12 0 0 0 3.367 21.257l91.949 28.582 28.584 91.949a12 12 0 0 0 21.256 3.367l55.6-78.616 96.28 1.231h.154a12 12 0 0 0 9.616-19.177z" fill="url(#New_Gradient_Swatch_2)"/><path d="m498.777 35.27c-16.9-5.242-19.057-12.232-19.815-18.944a6 6 0 0 0 -11.924 0c-.759 6.711-2.913 13.7-19.815 18.944a6 6 0 0 0 1.1 11.692c6.711.758 13.7 2.913 18.942 19.815a6 6 0 0 0 11.462 0c5.242-16.9 12.232-19.057 18.942-19.815a6 6 0 0 0 1.1-11.692z" fill="url(#New_Gradient_Swatch_10)"/><path d="m441.777 356.27c-16.9-5.242-19.057-12.232-19.815-18.944a6 6 0 0 0 -11.924 0c-.759 6.711-2.913 13.7-19.815 18.944a6 6 0 0 0 1.1 11.692c6.711.758 13.7 2.913 18.942 19.815a6 6 0 0 0 11.462 0c5.242-16.9 12.232-19.057 18.942-19.815a6 6 0 0 0 1.1-11.692z" fill="url(#New_Gradient_Swatch_10-2)"/><path d="m137.777 106.27c-16.9-5.242-19.057-12.232-19.815-18.944a6 6 0 0 0 -11.924 0c-.759 6.711-2.913 13.7-19.815 18.944a6 6 0 0 0 1.1 11.692c6.711.758 13.7 2.913 18.942 19.815a6 6 0 0 0 11.462 0c5.242-16.9 12.232-19.057 18.942-19.815a6 6 0 0 0 1.1-11.692z" fill="url(#New_Gradient_Swatch_10-3)"/></g></g></svg>