<svg height="512" viewBox="0 0 512 512" width="512" xmlns="http://www.w3.org/2000/svg" xmlns:xlink="http://www.w3.org/1999/xlink"><linearGradient id="New_Gradient_Swatch_10" gradientUnits="userSpaceOnUse" x1="109" x2="356" y1="108" y2="108"><stop offset=".015" stop-color="#fbde7d"/><stop offset="1" stop-color="#fdeebe"/></linearGradient><linearGradient id="New_Gradient_Swatch_6" gradientUnits="userSpaceOnUse" x1="149.277" x2="338.066" y1="398.248" y2="209.459"><stop offset=".015" stop-color="#c4f2e3"/><stop offset="1" stop-color="#e2f8f1"/></linearGradient><linearGradient id="New_Gradient_Swatch_5" gradientUnits="userSpaceOnUse" x1="113.15" x2="398.85" y1="554.121" y2="268.421"><stop offset=".015" stop-color="#fb9d8d"/><stop offset="1" stop-color="#fdcec6"/></linearGradient><linearGradient id="New_Gradient_Swatch_5-2" x1="108.025" x2="296.814" xlink:href="#New_Gradient_Swatch_5" y1="356.995" y2="168.207"/><linearGradient id="New_Gradient_Swatch_15" gradientUnits="userSpaceOnUse" x1="341.594" x2="426.406" y1="482.406" y2="397.594"><stop offset=".015" stop-color="#ebe6f4"/><stop offset="1" stop-color="#f5f3fa"/></linearGradient><linearGradient id="New_Gradient_Swatch_12" gradientUnits="userSpaceOnUse" x1="367.029" x2="400.971" y1="456.971" y2="423.029"><stop offset=".015" stop-color="#d7cdea"/><stop offset="1" stop-color="#ebe6f4"/></linearGradient><linearGradient id="New_Gradient_Swatch_15-2" x1="85.594" x2="170.406" xlink:href="#New_Gradient_Swatch_15" y1="482.406" y2="397.594"/><linearGradient id="New_Gradient_Swatch_12-2" x1="111.029" x2="144.971" xlink:href="#New_Gradient_Swatch_12" y1="456.971" y2="423.029"/><g id="_27-car" data-name="27-car"><g id="gradient"><path d="m296 4c-21.626 0-34.815 10.307-45.413 18.589-7.82 6.111-12.516 9.568-18.087 9.568-5.692 0-10.819-3.72-18.712-9.79-10.64-8.183-23.882-18.367-44.788-18.367a60 60 0 0 0 0 120c20.905 0 34.147-10.184 44.788-18.367 2.275-1.75 4.316-3.3 6.212-4.624v98.991a12 12 0 0 0 24 0v-99.55c1.969 1.374 4.122 3.035 6.587 4.961 10.598 8.282 23.787 18.589 45.413 18.589a60 60 0 0 0 0-120zm-128 84a24 24 0 1 1 24-24 24 24 0 0 1 -24 24zm128 0a24 24 0 1 1 24-24 24 24 0 0 1 -24 24z" fill="url(#New_Gradient_Swatch_10)"/><path d="m410.49 338.172-66.284-119.311a60.032 60.032 0 0 0 -52.449-30.861h-120.8a59.938 59.938 0 0 0 -59.633 53.374l-11.256 101.3a12 12 0 0 0 11.932 13.326h288a12 12 0 0 0 10.49-17.828z" fill="url(#New_Gradient_Swatch_6)"/><path d="m497.918 374.219c-12.777-28.019-37.647-42.219-73.918-42.219h-336c-36.271 0-61.141 14.2-73.918 42.219-10.082 22.105-10.082 48.388-10.082 65.781a12 12 0 0 0 12 12h480a12 12 0 0 0 12-12c0-17.393 0-43.676-10.082-65.781z" fill="url(#New_Gradient_Swatch_5)"/><path d="m220 332h24v120h-24z" fill="#fb9d8d"/><path d="m304 388h-24a12 12 0 0 1 0-24h24a12 12 0 0 1 0 24z" fill="#fa8570"/><path d="m344.206 218.861a60.032 60.032 0 0 0 -52.449-30.861h-120.8a59.926 59.926 0 0 0 -59.448 52h244.441z" fill="url(#New_Gradient_Swatch_5-2)"/><circle cx="384" cy="440" fill="url(#New_Gradient_Swatch_15)" r="60"/><circle cx="384" cy="440" fill="url(#New_Gradient_Swatch_12)" r="24"/><circle cx="128" cy="440" fill="url(#New_Gradient_Swatch_15-2)" r="60"/><circle cx="128" cy="440" fill="url(#New_Gradient_Swatch_12-2)" r="24"/></g></g></svg>