<svg height="512" viewBox="0 0 512 512" width="512" xmlns="http://www.w3.org/2000/svg" xmlns:xlink="http://www.w3.org/1999/xlink"><linearGradient id="New_Gradient_Swatch_1" gradientUnits="userSpaceOnUse" x1="4.686" x2="260.686" y1="260.686" y2="4.686"><stop offset=".015" stop-color="#8ae4c8"/><stop offset="1" stop-color="#e2f8f1"/></linearGradient><linearGradient id="New_Gradient_Swatch_2" gradientTransform="matrix(0 1 -1 0 508 -180)" gradientUnits="userSpaceOnUse" x1="436" x2="189.373" y1="252" y2="5.373"><stop offset=".015" stop-color="#af9cd4"/><stop offset="1" stop-color="#ebe6f4"/></linearGradient><linearGradient id="New_Gradient_Swatch_10" gradientTransform="matrix(-1 0 0 -1 858.997 491.003)" gradientUnits="userSpaceOnUse" x1="607.683" x2="351.683" y1="-16.311" y2="239.689"><stop offset=".015" stop-color="#fbde7d"/><stop offset="1" stop-color="#fdeebe"/></linearGradient><g id="_28-jigsaw" data-name="28-jigsaw"><g id="gradient"><path d="m230.057 80.039a47.79 47.79 0 0 1 25.943 6.399v-86.438h-224a32 32 0 0 0 -32 32v224h86.438a48 48 0 1 0 83.124 0h86.438v-86.438a48 48 0 1 1 -25.943-89.523z" fill="url(#New_Gradient_Swatch_1)"/><path d="m431.961 230.057a47.79 47.79 0 0 1 -6.4 25.943h86.439v-224a32 32 0 0 0 -32-32h-224v86.437a48 48 0 1 0 0 83.125v86.438h86.437a48 48 0 1 1 89.524-25.943z" fill="url(#New_Gradient_Swatch_2)"/><path d="m281.943 431.961a47.79 47.79 0 0 1 -25.943-6.4v86.439h224a32 32 0 0 0 32-32v-224h-86.437a48 48 0 1 0 -83.125 0h-86.438v86.437a48 48 0 1 1 25.943 89.524z" fill="url(#New_Gradient_Swatch_10)"/></g></g></svg>