<svg height="512" viewBox="0 0 512 512" width="512" xmlns="http://www.w3.org/2000/svg" xmlns:xlink="http://www.w3.org/1999/xlink"><linearGradient id="New_Gradient_Swatch_6" gradientUnits="userSpaceOnUse" x1="60.319" x2="451.681" y1="410.073" y2="18.71"><stop offset=".015" stop-color="#c4f2e3"/><stop offset="1" stop-color="#e2f8f1"/></linearGradient><linearGradient id="New_Gradient_Swatch_5" gradientUnits="userSpaceOnUse" x1="202.061" x2="309.939" y1="397.276" y2="289.398"><stop offset=".015" stop-color="#fb9d8d"/><stop offset="1" stop-color="#fdcec6"/></linearGradient><linearGradient id="New_Gradient_Swatch_7" gradientUnits="userSpaceOnUse" x1="388.686" x2="411.314" y1="79.314" y2="56.686"><stop offset=".015" stop-color="#9c83c9"/><stop offset="1" stop-color="#c3b5df"/></linearGradient><g id="_30-apron" data-name="30-apron"><g id="gradient"><path d="m442.29 9.826a12 12 0 0 0 -10.29-5.826h-80a12 12 0 0 0 -12 12v80c0 33.871-9.206 65.566-25.921 89.246-15.82 22.411-36.446 34.754-58.079 34.754s-42.259-12.343-58.079-34.754c-16.715-23.68-25.921-55.375-25.921-89.246v-80a12 12 0 0 0 -12-12h-80a12 12 0 0 0 -10.29 5.826c-2.029 3.383-49.71 84.889-49.71 262.174a236 236 0 0 0 402.877 166.877 234.452 234.452 0 0 0 69.123-166.877c0-177.285-47.681-258.791-49.71-262.174zm-330.29 74.174a16 16 0 1 1 16-16 16 16 0 0 1 -16 16z" fill="url(#New_Gradient_Swatch_6)"/><path d="m323.837 303.4c-7.823-8.788-29.589-26.061-67.837-5.294-38.25-20.768-60.016-3.493-67.837 5.294-17.111 19.225-19.8 54.262-5.533 72.095 33.264 41.58 66.6 58.535 68 59.237a12 12 0 0 0 10.732 0c1.4-.7 34.74-17.657 68-59.237 14.276-17.832 11.586-52.869-5.525-72.095z" fill="url(#New_Gradient_Swatch_5)"/><circle cx="400" cy="68" fill="url(#New_Gradient_Swatch_7)" r="16"/></g></g></svg>