<svg height="512" viewBox="0 0 512 512" width="512" xmlns="http://www.w3.org/2000/svg" xmlns:xlink="http://www.w3.org/1999/xlink"><linearGradient id="New_Gradient_Swatch_8" gradientUnits="userSpaceOnUse" x1="284.793" x2="408.148" y1="365.67" y2="242.316"><stop offset=".015" stop-color="#ffb676"/><stop offset="1" stop-color="#ffeddd"/></linearGradient><linearGradient id="New_Gradient_Swatch_16" gradientUnits="userSpaceOnUse" x1="394.942" x2="457.158" y1="343.442" y2="281.226"><stop offset=".015" stop-color="#fdeebe"/><stop offset="1" stop-color="#fef7de"/></linearGradient><linearGradient id="New_Gradient_Swatch_8-2" x1="98.846" x2="232.212" xlink:href="#New_Gradient_Swatch_8" y1="370.676" y2="237.311"/><linearGradient id="New_Gradient_Swatch_16-2" x1="54.841" x2="117.059" xlink:href="#New_Gradient_Swatch_16" y1="343.443" y2="281.226"/><linearGradient id="New_Gradient_Swatch_9" gradientUnits="userSpaceOnUse" x1="282.038" x2="385.133" y1="486.56" y2="383.465"><stop offset=".015" stop-color="#ffb676"/><stop offset="1" stop-color="#ffdbbb"/></linearGradient><linearGradient id="New_Gradient_Swatch_16-3" x1="376.719" x2="438.961" xlink:href="#New_Gradient_Swatch_16" y1="495.889" y2="433.647"/><linearGradient id="New_Gradient_Swatch_9-2" x1="109.019" x2="247.811" xlink:href="#New_Gradient_Swatch_9" y1="504.408" y2="365.616"/><linearGradient id="New_Gradient_Swatch_16-4" x1="73.031" x2="135.29" xlink:href="#New_Gradient_Swatch_16" y1="495.898" y2="433.638"/><linearGradient id="New_Gradient_Swatch_8-3" x1="173.817" x2="338.183" xlink:href="#New_Gradient_Swatch_8" y1="426.183" y2="261.817"/><linearGradient id="New_Gradient_Swatch_8-4" x1="333.594" x2="418.406" xlink:href="#New_Gradient_Swatch_8" y1="106.406" y2="21.594"/><linearGradient id="New_Gradient_Swatch_10" gradientUnits="userSpaceOnUse" x1="356.21" x2="395.79" y1="83.79" y2="44.21"><stop offset=".015" stop-color="#fbde7d"/><stop offset="1" stop-color="#fdeebe"/></linearGradient><linearGradient id="New_Gradient_Swatch_8-5" x1="93.594" x2="178.406" xlink:href="#New_Gradient_Swatch_8" y1="106.406" y2="21.594"/><linearGradient id="New_Gradient_Swatch_10-2" x1="116.21" x2="155.79" xlink:href="#New_Gradient_Swatch_10" y1="83.79" y2="44.21"/><linearGradient id="New_Gradient_Swatch_10-3" x1="162.706" x2="349.294" xlink:href="#New_Gradient_Swatch_10" y1="245.294" y2="58.706"/><linearGradient id="New_Gradient_Swatch_8-6" x1="163.421" x2="348.579" xlink:href="#New_Gradient_Swatch_8" y1="243.15" y2="57.991"/><linearGradient id="New_Gradient_Swatch_5" gradientUnits="userSpaceOnUse" x1="230.556" x2="281.444" y1="201.444" y2="150.556"><stop offset=".015" stop-color="#fb9d8d"/><stop offset="1" stop-color="#fdcec6"/></linearGradient><linearGradient id="New_Gradient_Swatch_16-5" x1="212.544" x2="299.456" xlink:href="#New_Gradient_Swatch_16" y1="410.368" y2="323.456"/><g id="_31-bear" data-name="31-bear"><g id="gradient"><path d="m430.623 268.575-159.123-16.683a12 12 0 0 0 -13.186 10.683l-6.674 63.651a12 12 0 0 0 10.683 13.185l159.123 16.689a12 12 0 0 0 13.186-10.684l6.674-63.651a12 12 0 0 0 -10.683-13.19z" fill="url(#New_Gradient_Swatch_8)"/><path d="m460.222 284.637a44 44 0 1 0 -38.776 71.463 44.764 44.764 0 0 0 4.672.245 44 44 0 0 0 34.1-71.7z" fill="url(#New_Gradient_Swatch_16)"/><path d="m260.365 326.226-6.674-63.651a12 12 0 0 0 -13.186-10.683l-159.128 16.683a12 12 0 0 0 -10.683 13.186l6.674 63.651a12 12 0 0 0 13.186 10.688l159.128-16.685a12 12 0 0 0 10.683-13.185z" fill="url(#New_Gradient_Swatch_8-2)"/><path d="m129.726 307.747a44 44 0 1 0 -43.844 48.594 44.764 44.764 0 0 0 4.672-.245 44.051 44.051 0 0 0 39.172-48.349z" fill="url(#New_Gradient_Swatch_16-2)"/><path d="m424.208 423.914-148.527-59.492a12 12 0 0 0 -15.6 6.678l-23.8 59.411a12 12 0 0 0 6.677 15.6l148.53 59.489a11.988 11.988 0 0 0 15.6-6.677l23.8-59.411a12 12 0 0 0 -6.68-15.598z" fill="url(#New_Gradient_Swatch_9)"/><path d="m424.208 423.914a44 44 0 1 0 24.485 57.206 43.713 43.713 0 0 0 -24.485-57.206z" fill="url(#New_Gradient_Swatch_16-3)"/><path d="m275.718 430.511-23.8-59.411a12 12 0 0 0 -15.6-6.678l-148.526 59.492a12 12 0 0 0 -6.678 15.6l23.8 59.411a11.988 11.988 0 0 0 15.6 6.677l148.529-59.492a12 12 0 0 0 6.677-15.6z" fill="url(#New_Gradient_Swatch_9-2)"/><path d="m145 448.4a44 44 0 1 0 -.394 33.673 43.713 43.713 0 0 0 .394-33.673z" fill="url(#New_Gradient_Swatch_16-4)"/><ellipse cx="256" cy="344" fill="url(#New_Gradient_Swatch_8-3)" rx="108" ry="124"/><circle cx="376" cy="64" fill="url(#New_Gradient_Swatch_8-4)" r="60"/><circle cx="376" cy="64" fill="url(#New_Gradient_Swatch_10)" r="28"/><circle cx="136" cy="64" fill="url(#New_Gradient_Swatch_8-5)" r="60"/><circle cx="136" cy="64" fill="url(#New_Gradient_Swatch_10-2)" r="28"/><circle cx="256" cy="152" fill="url(#New_Gradient_Swatch_10-3)" r="132"/><path d="m256 168a127.9 127.9 0 0 1 108.175 59.554 131.259 131.259 0 0 0 23.825-75.554c0-72.785-59.215-132-132-132s-132 59.215-132 132a131.259 131.259 0 0 0 23.825 75.554 127.9 127.9 0 0 1 108.175-59.554z" fill="url(#New_Gradient_Swatch_8-6)"/><path d="m256 276a12 12 0 0 1 -12-12v-64a12 12 0 0 1 24 0v64a12 12 0 0 1 -12 12z" fill="#ffb676"/><circle cx="316" cy="148" fill="#ffa454" r="12"/><circle cx="188" cy="148" fill="#ffa454" r="12"/><circle cx="256" cy="176" fill="url(#New_Gradient_Swatch_5)" r="36"/><path d="m328 352h-144a72 72 0 0 0 144 0z" fill="url(#New_Gradient_Swatch_16-5)"/></g></g></svg>