<svg height="512" viewBox="0 0 512 512" width="512" xmlns="http://www.w3.org/2000/svg" xmlns:xlink="http://www.w3.org/1999/xlink"><linearGradient id="New_Gradient_Swatch_1" gradientUnits="userSpaceOnUse" x1="174.778" x2="337.222" y1="203.002" y2="40.558"><stop offset=".015" stop-color="#8ae4c8"/><stop offset="1" stop-color="#e2f8f1"/></linearGradient><linearGradient id="New_Gradient_Swatch_2" gradientUnits="userSpaceOnUse" x1="315.169" x2="477.613" y1="430.98" y2="268.537"><stop offset=".015" stop-color="#af9cd4"/><stop offset="1" stop-color="#ebe6f4"/></linearGradient><linearGradient id="New_Gradient_Swatch_5" gradientUnits="userSpaceOnUse" x1="34.561" x2="197.005" y1="434.958" y2="272.514"><stop offset=".015" stop-color="#fb9d8d"/><stop offset="1" stop-color="#fdcec6"/></linearGradient><g id="_32-balloon" data-name="32-balloon"><g id="gradient"><path d="m256.011 508a11.993 11.993 0 0 1 -10.388-5.977c-.848-1.459-20.581-36.222-5.977-78.909q.794-2.32 1.592-4.615c8.536-24.627 15.908-45.9-.4-87.084-15.584-39.37-6.574-68.916 3.989-95.8a12 12 0 0 1 22.338 8.776c-11.295 28.751-15.28 49.727-4.011 78.2 19.581 49.469 10.011 77.078.757 103.778q-.78 2.252-1.561 4.523c-11.1 32.447 3.871 58.828 4.023 59.091a12 12 0 0 1 -10.362 18.017z" fill="#d7cdea"/><path d="m256 4a108.122 108.122 0 0 0 -108 108c0 28.7 11.578 63.441 30.216 90.662 21.784 31.817 49.409 49.338 77.784 49.338s56-17.521 77.784-49.338c18.638-27.221 30.216-61.962 30.216-90.662a108.122 108.122 0 0 0 -108-108z" fill="url(#New_Gradient_Swatch_1)"/><path d="m306.686 162.406-40-96a12 12 0 0 0 -22.154 0l-40 96a12 12 0 1 0 22.154 9.231l6.923-16.616h44l6.923 16.616a12 12 0 1 0 22.154-9.231zm-63.077-31.385 12-28.8 12 28.8z" fill="#fefbef"/><path d="m396.391 231.979a108.122 108.122 0 0 0 -108 108c0 28.7 11.578 63.441 30.216 90.662 21.785 31.816 49.409 49.338 77.784 49.338s56-17.522 77.784-49.338c18.638-27.221 30.216-61.961 30.216-90.662a108.122 108.122 0 0 0 -108-108z" fill="url(#New_Gradient_Swatch_2)"/><path d="m427.609 408.021h-32a44.049 44.049 0 0 1 -44-44v-32a44.05 44.05 0 0 1 44-44h32a12 12 0 0 1 0 24h-32a20.023 20.023 0 0 0 -20 20v32a20.022 20.022 0 0 0 20 20h32a12 12 0 0 1 0 24z" fill="#fefbef"/><path d="m115.783 235.956a108.122 108.122 0 0 0 -108 108c0 28.7 11.578 63.441 30.216 90.662 21.785 31.817 49.409 49.338 77.784 49.338s56-17.521 77.783-49.338c18.639-27.221 30.217-61.961 30.217-90.662a108.122 108.122 0 0 0 -108-108z" fill="url(#New_Gradient_Swatch_5)"/><path d="m164 327a36.04 36.04 0 0 0 -36-36h-40a12 12 0 0 0 -12 12v96a12 12 0 0 0 12 12h40a35.977 35.977 0 0 0 26.8-60 35.853 35.853 0 0 0 9.2-24zm-64-12h28a12 12 0 0 1 0 24h-28zm28 72h-28v-24h28a12 12 0 0 1 0 24z" fill="#fefbef"/></g></g></svg>