<svg height="512" viewBox="0 0 512 512" width="512" xmlns="http://www.w3.org/2000/svg" xmlns:xlink="http://www.w3.org/1999/xlink"><linearGradient id="New_Gradient_Swatch_17" gradientUnits="userSpaceOnUse" x1="37.373" x2="474.627" y1="498.627" y2="61.373"><stop offset=".015" stop-color="#fef7de"/><stop offset="1" stop-color="#fefbef"/></linearGradient><linearGradient id="New_Gradient_Swatch_2" gradientUnits="userSpaceOnUse" x1="79.643" x2="208.357" y1="265.673" y2="136.958"><stop offset=".015" stop-color="#af9cd4"/><stop offset="1" stop-color="#ebe6f4"/></linearGradient><linearGradient id="New_Gradient_Swatch_5" gradientUnits="userSpaceOnUse" x1="279.515" x2="440.485" y1="264.485" y2="103.515"><stop offset=".015" stop-color="#fb9d8d"/><stop offset="1" stop-color="#fdcec6"/></linearGradient><linearGradient id="New_Gradient_Swatch_5-2" x1="84.631" x2="203.369" xlink:href="#New_Gradient_Swatch_5" y1="435.369" y2="316.631"/><linearGradient id="New_Gradient_Swatch_2-2" x1="297.515" x2="422.485" xlink:href="#New_Gradient_Swatch_2" y1="458.485" y2="333.515"/><g id="_03-game" data-name="03-game"><g id="gradient"><rect fill="url(#New_Gradient_Swatch_17)" height="432" rx="32" width="480" x="16" y="64"/><path d="m464 508h-416a44.049 44.049 0 0 1 -44-44v-368a44.049 44.049 0 0 1 44-44h416a44.049 44.049 0 0 1 44 44v368a44.049 44.049 0 0 1 -44 44zm-416-432a20.023 20.023 0 0 0 -20 20v368a20.023 20.023 0 0 0 20 20h416a20.023 20.023 0 0 0 20-20v-368a20.023 20.023 0 0 0 -20-20z" fill="#fbde7d"/><path d="m235.413 165.863a12 12 0 0 0 -9.687-8.167l-49.036-7.125-21.929-44.434a12 12 0 0 0 -21.522 0l-21.929 44.434-49.036 7.129a12 12 0 0 0 -6.65 20.469l35.482 34.586-8.376 48.834a12 12 0 0 0 17.411 12.65l43.859-23.058 43.859 23.058a12 12 0 0 0 17.411-12.65l-8.376-48.838 35.482-34.586a12 12 0 0 0 3.037-12.302z" fill="url(#New_Gradient_Swatch_2)"/><rect fill="url(#New_Gradient_Swatch_5)" height="168" rx="12" width="168" x="276" y="100"/><circle cx="144" cy="376" fill="url(#New_Gradient_Swatch_5-2)" r="84"/><path d="m439.367 350.528-72-56a12 12 0 0 0 -14.734 0l-72 56a12 12 0 0 0 -4.44 11.618l16 88a12 12 0 0 0 11.807 9.854h112a12 12 0 0 0 11.807-9.854l16-88a12 12 0 0 0 -4.44-11.618z" fill="url(#New_Gradient_Swatch_2-2)"/></g></g></svg>