<svg height="512" viewBox="0 0 512 512" width="512" xmlns="http://www.w3.org/2000/svg" xmlns:xlink="http://www.w3.org/1999/xlink"><linearGradient id="New_Gradient_Swatch_4" gradientUnits="userSpaceOnUse" x1="59.126" x2="324.874" y1="324.874" y2="59.126"><stop offset=".015" stop-color="#fb9d8d"/><stop offset="1" stop-color="#fee7e2"/></linearGradient><linearGradient id="New_Gradient_Swatch_10" gradientUnits="userSpaceOnUse" x1="81.597" x2="302.403" y1="326.403" y2="105.597"><stop offset=".015" stop-color="#fbde7d"/><stop offset="1" stop-color="#fdeebe"/></linearGradient><linearGradient id="New_Gradient_Swatch_4-2" x1="101.047" x2="282.953" xlink:href="#New_Gradient_Swatch_4" y1="306.953" y2="125.047"/><linearGradient id="New_Gradient_Swatch_5" gradientUnits="userSpaceOnUse" x1="154.896" x2="229.104" y1="85.104" y2="10.896"><stop offset=".015" stop-color="#fb9d8d"/><stop offset="1" stop-color="#fdcec6"/></linearGradient><linearGradient id="New_Gradient_Swatch_1" gradientUnits="userSpaceOnUse" x1="226.706" x2="413.294" y1="469.294" y2="282.706"><stop offset=".015" stop-color="#8ae4c8"/><stop offset="1" stop-color="#e2f8f1"/></linearGradient><linearGradient id="New_Gradient_Swatch_2" gradientUnits="userSpaceOnUse" x1="252.123" x2="387.877" y1="463.877" y2="328.123"><stop offset=".015" stop-color="#af9cd4"/><stop offset="1" stop-color="#ebe6f4"/></linearGradient><linearGradient id="New_Gradient_Swatch_2-2" x1="289.491" x2="350.509" xlink:href="#New_Gradient_Swatch_2" y1="310.509" y2="249.491"/><g id="_34-ball" data-name="34-ball"><g id="gradient"><circle cx="192" cy="192" fill="url(#New_Gradient_Swatch_4)" r="188"/><ellipse cx="192" cy="216" fill="url(#New_Gradient_Swatch_10)" rx="148" ry="164"/><path d="m248.314 103.863c-14.082-33.444-34.081-51.863-56.314-51.863s-42.232 18.419-56.314 51.863c-12.695 30.149-19.686 69.974-19.686 112.137s6.991 81.988 19.686 112.137c14.082 33.444 34.081 51.863 56.314 51.863s42.232-18.419 56.314-51.863c12.695-30.149 19.686-69.974 19.686-112.137s-6.991-81.988-19.686-112.137z" fill="url(#New_Gradient_Swatch_4-2)"/><path d="m233.257 16.52c-11.143-7.429-25.795-11.52-41.257-11.52s-30.114 4.091-41.257 11.52c-12.216 8.144-18.943 19.323-18.943 31.48s6.727 23.336 18.943 31.48c11.143 7.429 25.795 11.52 41.257 11.52s30.114-4.091 41.257-11.52c12.216-8.144 18.943-19.323 18.943-31.48s-6.727-23.336-18.943-31.48z" fill="url(#New_Gradient_Swatch_5)"/><circle cx="320" cy="376" fill="url(#New_Gradient_Swatch_1)" r="132"/><path d="m375.362 318.82c-14.371-22.454-34.032-34.82-55.362-34.82s-40.991 12.366-55.362 34.82c-13.309 20.795-20.638 48.204-20.638 77.18s7.329 56.385 20.638 77.18c14.371 22.454 34.032 34.82 55.362 34.82s40.991-12.366 55.362-34.82c13.309-20.795 20.638-48.204 20.638-77.18s-7.329-56.385-20.638-77.18z" fill="url(#New_Gradient_Swatch_2)"/><ellipse cx="320" cy="280" fill="url(#New_Gradient_Swatch_2-2)" rx="49" ry="35.933"/></g></g></svg>