<svg height="512" viewBox="0 0 512 512" width="512" xmlns="http://www.w3.org/2000/svg" xmlns:xlink="http://www.w3.org/1999/xlink"><linearGradient id="New_Gradient_Swatch_6" gradientUnits="userSpaceOnUse" x1="21.515" x2="186.485" y1="470.486" y2="305.515"><stop offset=".015" stop-color="#c4f2e3"/><stop offset="1" stop-color="#e2f8f1"/></linearGradient><linearGradient id="New_Gradient_Swatch_7" gradientUnits="userSpaceOnUse" x1="-16.066" x2="148.905" y1="432.905" y2="267.935"><stop offset=".015" stop-color="#9c83c9"/><stop offset="1" stop-color="#c3b5df"/></linearGradient><linearGradient id="New_Gradient_Swatch_15" gradientUnits="userSpaceOnUse" x1="38.827" x2="174.682" y1="269.565" y2="133.711"><stop offset=".015" stop-color="#ebe6f4"/><stop offset="1" stop-color="#f5f3fa"/></linearGradient><linearGradient id="New_Gradient_Swatch_5" gradientUnits="userSpaceOnUse" x1="19.258" x2="155.112" y1="249.996" y2="114.141"><stop offset=".015" stop-color="#fb9d8d"/><stop offset="1" stop-color="#fdcec6"/></linearGradient><linearGradient id="New_Gradient_Swatch_15-2" x1="244.985" x2="459.396" xlink:href="#New_Gradient_Swatch_15" y1="280.397" y2="65.985"/><linearGradient id="New_Gradient_Swatch_5-2" x1="256.902" x2="319.098" xlink:href="#New_Gradient_Swatch_5" y1="127.098" y2="64.902"/><linearGradient id="New_Gradient_Swatch_10" gradientUnits="userSpaceOnUse" x1="376.902" x2="439.098" y1="175.098" y2="112.902"><stop offset=".015" stop-color="#fbde7d"/><stop offset="1" stop-color="#fdeebe"/></linearGradient><linearGradient id="New_Gradient_Swatch_1" gradientUnits="userSpaceOnUse" x1="368.902" x2="431.098" y1="311.098" y2="248.902"><stop offset=".015" stop-color="#8ae4c8"/><stop offset="1" stop-color="#e2f8f1"/></linearGradient><g id="_35-paint" data-name="35-paint"><g id="gradient"><path d="m155.972 495.175-16-232a12 12 0 0 0 -11.972-11.175h-48a12 12 0 0 0 -11.972 11.175l-16 232a12 12 0 0 0 11.972 12.825h80a12 12 0 0 0 11.972-12.825z" fill="url(#New_Gradient_Swatch_6)"/><path d="m139.972 263.175a12 12 0 0 0 -11.972-11.175h-48a12 12 0 0 0 -11.972 11.175l-6.677 96.825h85.3z" fill="url(#New_Gradient_Swatch_7)"/><path d="m151.511 145.649c-16.611-17.549-30.952-32.705-27.632-55.949a12 12 0 0 0 -18.854-11.462c-54.035 38.593-85.025 88.807-85.025 137.762a84 84 0 0 0 168 0c0-31.794-19.386-52.278-36.489-70.351z" fill="url(#New_Gradient_Swatch_15)"/><path d="m96 184c24 0 16 32 40 32 18.554 0 26.351-24.2 37.424-44.546-6.536-9.556-14.442-17.911-21.913-25.805-16.611-17.549-30.952-32.705-27.632-55.949a12 12 0 0 0 -18.854-11.462c-54.035 38.593-85.025 88.807-85.025 137.762a83.5 83.5 0 0 0 6.328 31.946c45.677-2.036 46.072-63.946 69.672-63.946z" fill="url(#New_Gradient_Swatch_5)"/><path d="m447.981 55.039c-36.955-32.913-82.406-51.039-127.981-51.039-44.823 0-131.749 17.245-139.907 82.512-5.7 45.6 23.759 68.245 52.246 90.146 16.974 13.05 34.527 26.544 45.242 45.3s12.987 39.147 15.183 58.867c1.989 17.87 4.046 36.349 12.319 53.318 9.461 19.4 25.83 34.065 50.043 44.827a74.726 74.726 0 0 0 30.54 6.67c15.121 0 30.32-4.8 45-14.338 46.259-30.068 77.334-100.439 77.334-147.302 0-2.8.066-6.026.137-9.446.746-36.354 2.135-104.037-60.156-159.515z" fill="url(#New_Gradient_Swatch_15-2)"/><circle cx="288" cy="96" fill="url(#New_Gradient_Swatch_5-2)" r="44"/><circle cx="408" cy="144" fill="url(#New_Gradient_Swatch_10)" r="44"/><circle cx="400" cy="280" fill="url(#New_Gradient_Swatch_1)" r="44"/></g></g></svg>