<svg height="512" viewBox="0 0 512 512" width="512" xmlns="http://www.w3.org/2000/svg" xmlns:xlink="http://www.w3.org/1999/xlink"><linearGradient id="New_Gradient_Swatch_2" gradientUnits="userSpaceOnUse" x1="120.035" x2="391.965" y1="617.006" y2="345.077"><stop offset=".015" stop-color="#af9cd4"/><stop offset="1" stop-color="#ebe6f4"/></linearGradient><linearGradient id="New_Gradient_Swatch_5" gradientUnits="userSpaceOnUse" x1="107.029" x2="164.971" y1="244.971" y2="187.029"><stop offset=".015" stop-color="#fb9d8d"/><stop offset="1" stop-color="#fdcec6"/></linearGradient><linearGradient id="New_Gradient_Swatch_5-2" x1="155.029" x2="212.971" xlink:href="#New_Gradient_Swatch_5" y1="244.971" y2="187.029"/><linearGradient id="New_Gradient_Swatch_5-3" x1="203.029" x2="260.971" xlink:href="#New_Gradient_Swatch_5" y1="244.971" y2="187.029"/><linearGradient id="New_Gradient_Swatch_10" gradientUnits="userSpaceOnUse" x1="347.029" x2="404.971" y1="116.971" y2="59.029"><stop offset=".015" stop-color="#fbde7d"/><stop offset="1" stop-color="#fdeebe"/></linearGradient><linearGradient id="New_Gradient_Swatch_10-2" x1="299.029" x2="356.971" xlink:href="#New_Gradient_Swatch_10" y1="116.971" y2="59.029"/><linearGradient id="New_Gradient_Swatch_10-3" x1="251.029" x2="308.971" xlink:href="#New_Gradient_Swatch_10" y1="116.971" y2="59.029"/><linearGradient id="New_Gradient_Swatch_13" gradientUnits="userSpaceOnUse" x1="347.029" x2="404.971" y1="380.971" y2="323.029"><stop offset=".015" stop-color="#8ae4c8"/><stop offset="1" stop-color="#a7ebd6"/></linearGradient><linearGradient id="New_Gradient_Swatch_13-2" x1="299.029" x2="356.971" xlink:href="#New_Gradient_Swatch_13" y1="380.971" y2="323.029"/><linearGradient id="New_Gradient_Swatch_13-3" x1="251.029" x2="308.971" xlink:href="#New_Gradient_Swatch_13" y1="380.971" y2="323.029"/><g id="_04-game" data-name="04-game"><g id="gradient"><g fill="#fee7e2"><path d="m448 364h-384a12 12 0 0 1 0-24h384a12 12 0 0 1 0 24z"/><path d="m448 228h-384a12 12 0 0 1 0-24h384a12 12 0 0 1 0 24z"/><path d="m448 100h-384a12 12 0 0 1 0-24h384a12 12 0 0 1 0 24z"/></g><path d="m448 452a12 12 0 0 1 -12-12v-417a12 12 0 0 1 24 0v417a12 12 0 0 1 -12 12z" fill="#fb9d8d"/><path d="m64 452a12 12 0 0 1 -12-12v-417a12 12 0 0 1 24 0v417a12 12 0 0 1 -12 12z" fill="#fb9d8d"/><path d="m472 440h-432a36.04 36.04 0 0 0 -36 36v20a12 12 0 0 0 12 12h480a12 12 0 0 0 12-12v-20a36.04 36.04 0 0 0 -36-36z" fill="url(#New_Gradient_Swatch_2)"/><rect fill="url(#New_Gradient_Swatch_5)" height="96" rx="24" width="48" x="112" y="168"/><rect fill="url(#New_Gradient_Swatch_5-2)" height="96" rx="24" width="48" x="160" y="168"/><rect fill="url(#New_Gradient_Swatch_5-3)" height="96" rx="24" width="48" x="208" y="168"/><rect fill="url(#New_Gradient_Swatch_10)" height="96" rx="24" width="48" x="352" y="40"/><rect fill="url(#New_Gradient_Swatch_10-2)" height="96" rx="24" width="48" x="304" y="40"/><rect fill="url(#New_Gradient_Swatch_10-3)" height="96" rx="24" width="48" x="256" y="40"/><rect fill="url(#New_Gradient_Swatch_13)" height="96" rx="24" width="48" x="352" y="304"/><rect fill="url(#New_Gradient_Swatch_13-2)" height="96" rx="24" width="48" x="304" y="304"/><rect fill="url(#New_Gradient_Swatch_13-3)" height="96" rx="24" width="48" x="256" y="304"/></g></g></svg>