<svg height="512" viewBox="0 0 512 512" width="512" xmlns="http://www.w3.org/2000/svg" xmlns:xlink="http://www.w3.org/1999/xlink"><linearGradient id="New_Gradient_Swatch_10" gradientUnits="userSpaceOnUse" x1="172.902" x2="419.098" y1="571.098" y2="324.902"><stop offset=".015" stop-color="#fbde7d"/><stop offset="1" stop-color="#fdeebe"/></linearGradient><linearGradient id="New_Gradient_Swatch_5" gradientUnits="userSpaceOnUse" x1="232.902" x2="439.098" y1="407.098" y2="200.902"><stop offset=".015" stop-color="#fb9d8d"/><stop offset="1" stop-color="#fdcec6"/></linearGradient><linearGradient id="New_Gradient_Swatch_13" gradientUnits="userSpaceOnUse" x1="316.902" x2="467.098" y1="235.098" y2="84.902"><stop offset=".015" stop-color="#8ae4c8"/><stop offset="1" stop-color="#a7ebd6"/></linearGradient><linearGradient id="New_Gradient_Swatch_12" gradientUnits="userSpaceOnUse" x1="148.422" x2="236.414" y1="176.966" y2="176.966"><stop offset=".015" stop-color="#d7cdea"/><stop offset="1" stop-color="#ebe6f4"/></linearGradient><linearGradient id="New_Gradient_Swatch_12-2" x1="161.062" x2="223.299" xlink:href="#New_Gradient_Swatch_12" y1="79.128" y2="16.891"/><g id="_05-music" data-name="05-music"><g id="gradient"><g fill="#ebe6f4"><path d="m448 454a12 12 0 0 1 -12-12v-282a12 12 0 0 1 24 0v282a12 12 0 0 1 -12 12z"/><path d="m336 454a12 12 0 0 1 -12-12v-282a12 12 0 0 1 24 0v282a12 12 0 0 1 -12 12z"/><path d="m224 452a12 12 0 0 1 -12-12v-136a12 12 0 0 1 24 0v136a12 12 0 0 1 -12 12z"/></g><rect fill="url(#New_Gradient_Swatch_10)" height="120" rx="44" width="424" x="84" y="388"/><circle cx="448" cy="448" fill="#fad55c" r="12"/><circle cx="144" cy="448" fill="#fad55c" r="12"/><rect fill="url(#New_Gradient_Swatch_5)" height="120" rx="44" width="344" x="164" y="244"/><circle cx="448" cy="304" fill="#fa8570" r="12"/><circle cx="224" cy="304" fill="#fa8570" r="12"/><rect fill="url(#New_Gradient_Swatch_13)" height="120" rx="44" width="232" x="276" y="100"/><circle cx="448" cy="160" fill="#6ddeba" r="12"/><circle cx="336" cy="160" fill="#6ddeba" r="12"/><path d="m23.279 412.112a12 12 0 0 1 -9.554-19.249l154.622-204.03a12 12 0 1 1 19.127 14.5l-154.622 204.026a11.983 11.983 0 0 1 -9.573 4.753z" fill="#ebe6f4"/><path d="m235.994 170.949a43.994 43.994 0 1 0 -43.68 50.012 44.78 44.78 0 0 0 6.1-.419 44 44 0 0 0 37.584-49.593z" fill="url(#New_Gradient_Swatch_12)"/><path d="m23.055 283.168a12 12 0 0 1 -9.555-19.249l154.621-204.029a12 12 0 1 1 19.127 14.5l-154.621 204.026a11.982 11.982 0 0 1 -9.572 4.752z" fill="#ebe6f4"/><path d="m235.769 42.005a44 44 0 1 0 -70.169 41.073 43.673 43.673 0 0 0 26.485 8.94 44.645 44.645 0 0 0 6.1-.42 44 44 0 0 0 37.584-49.593z" fill="url(#New_Gradient_Swatch_12-2)"/></g></g></svg>