<svg height="512" viewBox="0 0 512 512" width="512" xmlns="http://www.w3.org/2000/svg" xmlns:xlink="http://www.w3.org/1999/xlink"><linearGradient id="New_Gradient_Swatch_15" gradientUnits="userSpaceOnUse" x1="64.208" x2="447.792" y1="481.179" y2="97.595"><stop offset=".015" stop-color="#ebe6f4"/><stop offset="1" stop-color="#f5f3fa"/></linearGradient><linearGradient id="New_Gradient_Swatch_10" gradientUnits="userSpaceOnUse" x1="64.208" x2="447.792" y1="481.179" y2="97.595"><stop offset=".015" stop-color="#fbde7d"/><stop offset="1" stop-color="#fdeebe"/></linearGradient><linearGradient id="New_Gradient_Swatch_7" gradientUnits="userSpaceOnUse" x1="99.757" x2="196.243" y1="340.728" y2="244.243"><stop offset=".015" stop-color="#9c83c9"/><stop offset="1" stop-color="#c3b5df"/></linearGradient><linearGradient id="New_Gradient_Swatch_7-2" x1="207.757" x2="304.243" xlink:href="#New_Gradient_Swatch_7" y1="340.728" y2="244.243"/><linearGradient id="New_Gradient_Swatch_7-3" x1="315.757" x2="412.243" xlink:href="#New_Gradient_Swatch_7" y1="340.728" y2="244.243"/><g id="_06-keyboard" data-name="06-keyboard"><g id="gradient"><path d="m464 132h-416a44.049 44.049 0 0 0 -44 44v240a12 12 0 0 0 12 12h480a12 12 0 0 0 12-12v-240a44.049 44.049 0 0 0 -44-44z" fill="url(#New_Gradient_Swatch_15)"/><path d="m464 132h-416a44.049 44.049 0 0 0 -44 44v240a12 12 0 0 0 12 12h36v-188a12 12 0 0 1 12-12h384a12 12 0 0 1 12 12v188h36a12 12 0 0 0 12-12v-240a44.049 44.049 0 0 0 -44-44z" fill="url(#New_Gradient_Swatch_10)"/><g fill="#d7cdea"><path d="m352 340h24v88h-24z"/><path d="m244 340h24v88h-24z"/><path d="m136 340h24v88h-24z"/></g><path d="m180 228h-64v124a12 12 0 0 0 12 12h40a12 12 0 0 0 12-12z" fill="url(#New_Gradient_Swatch_7)"/><path d="m288 228h-64v124a12 12 0 0 0 12 12h40a12 12 0 0 0 12-12z" fill="url(#New_Gradient_Swatch_7-2)"/><path d="m396 228h-64v124a12 12 0 0 0 12 12h40a12 12 0 0 0 12-12z" fill="url(#New_Gradient_Swatch_7-3)"/><path d="m288 192h-64a12 12 0 0 1 0-24h64a12 12 0 0 1 0 24z" fill="#fef7de"/><circle cx="384" cy="180" fill="#fef7de" r="12"/><circle cx="128" cy="180" fill="#fef7de" r="12"/></g></g></svg>