<svg height="512" viewBox="0 0 512 512" width="512" xmlns="http://www.w3.org/2000/svg" xmlns:xlink="http://www.w3.org/1999/xlink"><linearGradient id="New_Gradient_Swatch_1" gradientUnits="userSpaceOnUse" x1="99.757" x2="220.243" y1="103.757" y2="-16.728"><stop offset=".015" stop-color="#8ae4c8"/><stop offset="1" stop-color="#e2f8f1"/></linearGradient><linearGradient id="New_Gradient_Swatch_16" gradientUnits="userSpaceOnUse" x1="-6.485" x2="326.485" y1="458.485" y2="125.515"><stop offset=".015" stop-color="#fdeebe"/><stop offset="1" stop-color="#fef7de"/></linearGradient><linearGradient id="New_Gradient_Swatch_15" gradientUnits="userSpaceOnUse" x1="136" x2="242.485" y1="148" y2="41.515"><stop offset=".015" stop-color="#ebe6f4"/><stop offset="1" stop-color="#f5f3fa"/></linearGradient><linearGradient id="New_Gradient_Swatch_12" gradientUnits="userSpaceOnUse" x1="77.243" x2="351.243" y1="437.243" y2="163.243"><stop offset=".015" stop-color="#d7cdea"/><stop offset="1" stop-color="#ebe6f4"/></linearGradient><linearGradient id="New_Gradient_Swatch_1-2" x1="116" x2="316" xlink:href="#New_Gradient_Swatch_1" y1="296" y2="296"/><linearGradient id="New_Gradient_Swatch_13" gradientUnits="userSpaceOnUse" x1="387.095" x2="444.905" y1="188.905" y2="131.095"><stop offset=".015" stop-color="#8ae4c8"/><stop offset="1" stop-color="#a7ebd6"/></linearGradient><linearGradient id="New_Gradient_Swatch_5" gradientUnits="userSpaceOnUse" x1="239.711" x2="464.289" y1="472.983" y2="248.406"><stop offset=".015" stop-color="#fb9d8d"/><stop offset="1" stop-color="#fdcec6"/></linearGradient><g id="_07-nutrition" data-name="07-nutrition"><g id="gradient"><path d="m236 4h-152a12 12 0 0 0 -12 12v60h176v-60a12 12 0 0 0 -12-12z" fill="url(#New_Gradient_Swatch_1)"/><path d="m313.031 120.1-56-64a12 12 0 0 0 -9.031-4.1h-176a12 12 0 0 0 -9.031 4.1l-56 64a12 12 0 0 0 -2.969 7.9v336a12 12 0 0 0 12 12h288a12 12 0 0 0 12-12v-336a12 12 0 0 0 -2.969-7.9z" fill="url(#New_Gradient_Swatch_16)"/><path d="m313.031 120.1-56-64a12 12 0 0 0 -9.031-4.1h-176l44 76h200a14.941 14.941 0 0 0 -2.969-7.9z" fill="url(#New_Gradient_Swatch_15)"/><path d="m304 476a12 12 0 0 0 12-12v-336h-200v348z" fill="url(#New_Gradient_Swatch_12)"/><path d="m116 236h200v120h-200z" fill="url(#New_Gradient_Swatch_1-2)"/><path d="m352 252a12 12 0 0 1 -12-12v-120a12 12 0 0 1 24 0v120a12 12 0 0 1 -12 12z" fill="#fdeebe"/><path d="m465.618 152.823c-2.202-2.95-22.297-28.823-49.618-28.823s-47.416 25.873-49.618 28.823a12 12 0 0 0 0 14.354c2.2 2.95 22.3 28.823 49.618 28.823s47.416-25.873 49.618-28.823a12 12 0 0 0 0-14.354z" fill="url(#New_Gradient_Swatch_13)"/><path d="m448.615 237.022c-19.35-11.114-51.548-18.854-96.615 5.233-45.068-24.086-77.266-16.348-96.615-5.233-43.832 25.178-59.385 86.292-59.385 130.978a151.31 151.31 0 0 0 14.878 66.055c9.772 20.017 23.944 36.7 40.985 48.233 29.137 19.726 64.537 23.412 100.137 10.55a121.417 121.417 0 0 0 41.3 7.528 103.8 103.8 0 0 0 58.833-18.078c17.041-11.537 31.213-28.216 40.985-48.233a151.31 151.31 0 0 0 14.882-66.055c0-44.686-15.553-105.8-59.385-130.978z" fill="url(#New_Gradient_Swatch_5)"/></g></g></svg>