<svg height="512" viewBox="0 0 512 512" width="512" xmlns="http://www.w3.org/2000/svg" xmlns:xlink="http://www.w3.org/1999/xlink"><linearGradient id="New_Gradient_Swatch_13" gradientUnits="userSpaceOnUse" x1="198.554" x2="313.446" y1="503.525" y2="388.633"><stop offset=".015" stop-color="#8ae4c8"/><stop offset="1" stop-color="#a7ebd6"/></linearGradient><linearGradient id="New_Gradient_Swatch_15" gradientUnits="userSpaceOnUse" x1="38.556" x2="137.444" y1="273.444" y2="174.557"><stop offset=".015" stop-color="#ebe6f4"/><stop offset="1" stop-color="#f5f3fa"/></linearGradient><linearGradient id="New_Gradient_Swatch_15-2" x1="374.556" x2="473.444" xlink:href="#New_Gradient_Swatch_15" y1="129.444" y2="30.557"/><linearGradient id="New_Gradient_Swatch_9" gradientUnits="userSpaceOnUse" x1="219.248" x2="292.752" y1="188.752" y2="115.248"><stop offset=".015" stop-color="#ffb676"/><stop offset="1" stop-color="#ffdbbb"/></linearGradient><g id="_08-playground" data-name="08-playground"><g id="gradient"><path d="m400 428a12 12 0 0 1 -12-12v-64a44.049 44.049 0 0 1 44-44 12 12 0 0 1 0 24 20.023 20.023 0 0 0 -20 20v64a12 12 0 0 1 -12 12z" fill="#c3b5df"/><path d="m112 428a12 12 0 0 1 -12-12v-64a20.023 20.023 0 0 0 -20-20 12 12 0 0 1 0-24 44.049 44.049 0 0 1 44 44v64a12 12 0 0 1 -12 12z" fill="#c3b5df"/><path d="m496 428h-480a12 12 0 0 1 -12-12v-48a12 12 0 0 1 24 0v36h456v-36a12 12 0 0 1 24 0v48a12 12 0 0 1 -12 12z" fill="#ebe6f4"/><path d="m256 356a60.068 60.068 0 0 0 -60 60v80a12 12 0 0 0 12 12h96a12 12 0 0 0 12-12v-80a60.068 60.068 0 0 0 -60-60z" fill="url(#New_Gradient_Swatch_13)"/><circle cx="256" cy="416" fill="#6ddeba" r="12"/><path d="m138.625 188.1a52.008 52.008 0 0 0 -101.25 0 36 36 0 0 0 2.625 71.9h96a36 36 0 0 0 2.625-71.9z" fill="url(#New_Gradient_Swatch_15)"/><path d="m474.625 44.1a52.008 52.008 0 0 0 -101.25 0 36 36 0 0 0 2.625 71.9h96a36 36 0 0 0 2.625-71.9z" fill="url(#New_Gradient_Swatch_15-2)"/><circle cx="256" cy="152" fill="url(#New_Gradient_Swatch_9)" r="52"/><g fill="#fbde7d"><path d="m256 76a12 12 0 0 1 -12-12v-8a12 12 0 0 1 24 0v8a12 12 0 0 1 -12 12z"/><path d="m193.774 101.774a11.962 11.962 0 0 1 -8.485-3.514l-5.657-5.66a12 12 0 0 1 16.968-16.968l5.657 5.657a12 12 0 0 1 -8.486 20.485z"/><path d="m168 164h-8a12 12 0 0 1 0-24h8a12 12 0 0 1 0 24z"/><path d="m256 260a12 12 0 0 1 -12-12v-8a12 12 0 0 1 24 0v8a12 12 0 0 1 -12 12z"/><path d="m323.882 231.882a11.962 11.962 0 0 1 -8.485-3.514l-5.657-5.657a12 12 0 0 1 16.971-16.971l5.657 5.657a12 12 0 0 1 -8.486 20.485z"/><path d="m352 164h-8a12 12 0 0 1 0-24h8a12 12 0 0 1 0 24z"/></g></g></g></svg>