<svg height="512" viewBox="0 0 512 512" width="512" xmlns="http://www.w3.org/2000/svg" xmlns:xlink="http://www.w3.org/1999/xlink"><linearGradient id="New_Gradient_Swatch_7" gradientUnits="userSpaceOnUse" x1="67.515" x2="444.485" y1="468.485" y2="91.515"><stop offset=".015" stop-color="#9c83c9"/><stop offset="1" stop-color="#c3b5df"/></linearGradient><linearGradient id="New_Gradient_Swatch_10" gradientUnits="userSpaceOnUse" x1="119.515" x2="392.485" y1="584.485" y2="311.515"><stop offset=".015" stop-color="#fbde7d"/><stop offset="1" stop-color="#fdeebe"/></linearGradient><g id="_09-board" data-name="09-board"><g id="gradient"><path d="m415.99 140a11.939 11.939 0 0 1 -6.912-2.2l-153.078-108.109-153.078 108.109a12 12 0 0 1 -13.844-19.6l160-113a12 12 0 0 1 13.844 0l160 113a12 12 0 0 1 -6.932 21.8z" fill="#ebe6f4"/><rect fill="url(#New_Gradient_Swatch_7)" height="328" rx="12" width="440" x="36" y="116"/><rect fill="url(#New_Gradient_Swatch_10)" height="56" rx="12" width="504" x="4" y="420"/><g fill="#f5f3fa"><path d="m203.077 315.385-40-96a12 12 0 0 0 -22.154 0l-40 96a12 12 0 1 0 22.154 9.23l6.923-16.615h44l6.923 16.615a12 12 0 1 0 22.154-9.23zm-63.077-31.385 12-28.8 12 28.8z"/><path d="m308 248a36.04 36.04 0 0 0 -36-36h-40a12 12 0 0 0 -12 12v96a12 12 0 0 0 12 12h40a35.977 35.977 0 0 0 26.8-60 35.853 35.853 0 0 0 9.2-24zm-64-12h28a12 12 0 0 1 0 24h-28zm28 72h-28v-24h28a12 12 0 0 1 0 24z"/><path d="m400 332h-32a44.049 44.049 0 0 1 -44-44v-32a44.049 44.049 0 0 1 44-44h32a12 12 0 0 1 0 24h-32a20.023 20.023 0 0 0 -20 20v32a20.023 20.023 0 0 0 20 20h32a12 12 0 0 1 0 24z"/></g></g></g></svg>