<svg id="Capa_1" enable-background="new 0 0 512 512" height="512" viewBox="0 0 512 512" width="512" xmlns="http://www.w3.org/2000/svg"><g><path d="m290.851 45.729 49 93.321c5.661 10.781 16.604 18.254 29.262 19.983l109.568 14.965c31.877 4.354 44.606 41.174 21.539 62.308l-79.284 72.64c-9.16 8.392-13.34 20.483-11.177 32.333l18.717 102.57c5.445 29.841-27.878 52.597-56.39 38.508l-98.001-48.427c-11.322-5.595-24.848-5.595-36.17 0l-98.001 48.427c-28.512 14.089-61.835-8.667-56.39-38.508l18.717-102.57c2.162-11.85-2.017-23.941-11.177-32.333l-79.284-72.64c-23.067-21.134-10.338-57.954 21.539-62.308l109.568-14.965c12.658-1.729 23.601-9.202 29.262-19.983l49-93.321c14.256-27.151 55.446-27.151 69.702 0z" fill="#f58a97"/><g><path d="m478.682 173.997-109.568-14.965c-12.658-1.729-23.601-9.202-29.262-19.983l-49-93.321c-12.155-23.149-43.878-26.544-61.805-10.219 10.576 2.321 20.256 8.763 25.824 19.367l49 93.321c5.661 10.781 16.604 18.254 29.262 19.983l109.568 14.965c31.877 4.354 44.606 41.174 21.539 62.308l-79.284 72.64c-9.16 8.392-13.34 20.483-11.177 32.333l18.717 102.57c2.379 13.035-2.641 24.717-11.425 32.568 26.027 6.06 52.286-14.972 47.406-41.716l-18.716-102.57c-2.162-11.85 2.017-23.941 11.177-32.333l79.284-72.64c23.065-21.133 10.337-57.954-21.54-62.308z" fill="#f07281"/></g><g><circle cx="256" cy="72.311" fill="#fdd1d5" r="15.453"/><path d="m256 56.858c-3.528 0-6.77 1.196-9.371 3.186 3.691 2.824 6.082 7.261 6.082 12.267s-2.391 9.443-6.082 12.267c2.601 1.99 5.843 3.186 9.371 3.186 8.534 0 15.453-6.918 15.453-15.453s-6.919-15.453-15.453-15.453z" fill="#f6b2bb"/><circle cx="256" cy="149.574" fill="#fdd1d5" r="15.453"/><path d="m256 134.122c-3.528 0-6.77 1.196-9.371 3.186 3.691 2.824 6.082 7.261 6.082 12.267s-2.391 9.443-6.082 12.267c2.601 1.99 5.843 3.186 9.371 3.186 8.534 0 15.453-6.918 15.453-15.453s-6.919-15.453-15.453-15.453z" fill="#f6b2bb"/></g><g><g fill="#fdd1d5"><circle cx="72.434" cy="220.816" r="15.453"/><circle cx="145.965" cy="244.541" r="15.453"/></g><g><circle cx="439.566" cy="220.816" fill="#fdd1d5" r="15.453"/><circle cx="366.035" cy="244.541" fill="#fdd1d5" r="15.453"/><g fill="#f6b2bb"><path d="m366.04 229.088c-3.528 0-6.77 1.196-9.371 3.186 3.691 2.824 6.082 7.261 6.082 12.267s-2.391 9.443-6.082 12.267c2.601 1.99 5.843 3.186 9.371 3.186 8.534 0 15.453-6.918 15.453-15.453-.001-8.535-6.919-15.453-15.453-15.453z"/><path d="m439.57 205.363c-3.528 0-6.77 1.196-9.371 3.186 3.691 2.824 6.082 7.261 6.082 12.267s-2.391 9.443-6.082 12.267c2.601 1.99 5.843 3.186 9.371 3.186 8.534 0 15.453-6.918 15.453-15.453s-6.918-15.453-15.453-15.453z"/></g></g></g><g><g><g><circle cx="376.791" cy="432.674" fill="#fdd1d5" r="15.453"/><circle cx="323.732" cy="376.51" fill="#fdd1d5" r="15.453"/><g fill="#f6b2bb"><path d="m323.732 361.057c-3.528 0-6.77 1.196-9.371 3.186 3.691 2.824 6.082 7.261 6.082 12.267s-2.391 9.443-6.082 12.267c2.601 1.99 5.843 3.186 9.371 3.186 8.534 0 15.453-6.918 15.453-15.453 0-8.534-6.919-15.453-15.453-15.453z"/><path d="m376.791 417.221c-3.528 0-6.77 1.196-9.371 3.186 3.691 2.824 6.082 7.261 6.082 12.267s-2.391 9.443-6.082 12.267c2.601 1.99 5.843 3.186 9.371 3.186 8.534 0 15.453-6.918 15.453-15.453 0-8.534-6.918-15.453-15.453-15.453z"/></g></g></g><g><g><circle cx="135.209" cy="432.674" fill="#fdd1d5" r="15.453"/><circle cx="188.268" cy="376.51" fill="#fdd1d5" r="15.453"/><g fill="#f6b2bb"><path d="m188.268 361.057c-3.528 0-6.77 1.196-9.371 3.186 3.691 2.824 6.082 7.261 6.082 12.267s-2.391 9.443-6.082 12.267c2.601 1.99 5.843 3.186 9.371 3.186 8.534 0 15.453-6.918 15.453-15.453 0-8.534-6.919-15.453-15.453-15.453z"/><path d="m145.969 229.088c-3.528 0-6.77 1.196-9.371 3.186 3.691 2.824 6.082 7.261 6.082 12.267s-2.391 9.443-6.082 12.267c2.601 1.99 5.843 3.186 9.371 3.186 8.534 0 15.453-6.918 15.453-15.453-.001-8.535-6.919-15.453-15.453-15.453z"/><path d="m72.438 205.363c-3.528 0-6.77 1.196-9.371 3.186 3.691 2.824 6.082 7.261 6.082 12.267s-2.391 9.443-6.082 12.267c2.601 1.99 5.843 3.186 9.371 3.186 8.534 0 15.453-6.918 15.453-15.453s-6.919-15.453-15.453-15.453z"/><path d="m135.209 417.221c-3.528 0-6.77 1.196-9.371 3.186 3.691 2.824 6.082 7.261 6.082 12.267s-2.391 9.443-6.082 12.267c2.601 1.99 5.843 3.186 9.371 3.186 8.534 0 15.453-6.918 15.453-15.453-.001-8.534-6.919-15.453-15.453-15.453z"/></g></g></g></g><circle cx="256" cy="272.875" fill="#fdd1d5" r="26.483"/><path d="m256 246.392c-4.922 0-9.528 1.348-13.477 3.687 7.784 4.612 13.006 13.092 13.006 22.795s-5.222 18.184-13.006 22.796c3.949 2.34 8.554 3.687 13.477 3.687 14.626 0 26.483-11.857 26.483-26.483 0-14.625-11.857-26.482-26.483-26.482z" fill="#f6b2bb"/><g fill="#fdd1d5"><g><g><circle cx="256" cy="334.686" r="7.726"/><circle cx="256" cy="211.064" r="7.726"/></g><g><circle cx="317.811" cy="272.875" r="7.726"/><circle cx="194.189" cy="272.875" r="7.726"/></g></g><g><g><circle cx="299.707" cy="316.582" r="7.726"/><circle cx="212.293" cy="229.168" r="7.726"/></g><g><circle cx="299.707" cy="229.168" r="7.726"/><circle cx="212.293" cy="316.582" r="7.726"/></g></g></g></g></svg>