<svg id="Capa_1" enable-background="new 0 0 512 512" height="512" viewBox="0 0 512 512" width="512" xmlns="http://www.w3.org/2000/svg"><g><g><path d="m317.024 274.91c-18.513 0-43.01-4.413-68.17-21.627l41.495-78.953c1.768.309 17.74 3.341 34.028 14.431 15.844 10.787 34.729 31.204 34.729 67.209 0 6.279-3.911 11.894-9.801 14.07-1.012.374-13.6 4.869-32.281 4.87z" fill="#c9c3e6"/></g><g><path d="m267.314 431.087c-62.787-33.74-109.792-81.497-135.931-138.107-23.266-50.385-29.045-106.081-16.273-156.827 9.833-39.073 29.825-72.51 57.814-96.695 29.874-25.813 67.285-39.458 108.191-39.458 20.691 0 40.134 7.588 54.745 21.365 14.99 14.135 23.246 33.253 23.246 53.832 0 5.045-.506 10.094-1.505 15.007-.978 4.813 1.263 9.606 5.45 11.656l3.447 1.688c13.812 6.762 22.736 21.069 22.736 36.449 0 22.378-18.205 40.583-40.583 40.583-25.289 0-58.026 16.268-71.665 47.36-18.301 41.718 2.299 98.021 58.002 158.536z" fill="#f0f6fa"/></g><g fill="#e8e8ff"><path d="m193.462 180.712h-30.678c-41.194 0-74.708 33.514-74.708 74.708v30.678c0 8.284 6.716 15 15 15h30.678c41.194 0 74.708-33.514 74.708-74.708v-30.678c0-8.284-6.716-15-15-15z"/><path d="m366.498 103.549-3.447-1.688c-4.188-2.05-6.428-6.843-5.45-11.656.999-4.913 1.505-9.962 1.505-15.007 0-20.579-8.256-39.697-23.246-53.832-14.612-13.778-34.054-21.366-54.745-21.366-9.33 0-18.476.718-27.395 2.12v421.282c4.448 2.633 8.973 5.201 13.594 7.685l67.675-44.61c-55.703-60.515-76.303-116.817-58.002-158.536 13.639-31.092 46.376-47.36 71.665-47.36 22.378 0 40.583-18.206 40.583-40.583 0-15.38-8.925-29.687-22.737-36.449z"/><path d="m422.847 420.191c-.045-.114-.092-.227-.141-.34-16.351-38.135-60.68-55.858-98.812-39.511l-55.397 23.75c-38.135 16.35-55.86 60.677-39.511 98.811l.003.007c1.567 3.657 4.523 6.542 8.217 8.019 1.789.716 3.68 1.073 5.57 1.073 2.013 0 4.025-.405 5.911-1.213l27.698-11.875c22.614-9.695 38.049-29.229 43.459-51.477 3.094 1.779 6.33 3.357 9.703 4.706 9.04 3.615 18.499 5.419 27.951 5.419 10.061 0 20.112-2.045 29.638-6.129l27.698-11.875c7.482-3.208 11.037-11.806 8.013-19.365z"/></g><path d="m422.706 419.852c-16.351-38.135-60.68-55.858-98.812-39.511l-55.397 23.75c-5.344 2.291-10.272 5.149-14.777 8.445v96.092l22.664-9.717c22.614-9.695 38.049-29.229 43.459-51.477 3.094 1.779 6.33 3.357 9.703 4.706 9.04 3.615 18.499 5.419 27.951 5.419 10.061 0 20.112-2.045 29.638-6.129l27.698-11.875c7.482-3.208 11.037-11.806 8.014-19.365-.045-.112-.092-.226-.141-.338z" fill="#c9c3e6"/><g><g><path d="m253.72 120.326c7.846 0 15.363-6.899 15-15-.364-8.127-6.591-15-15-15-7.846 0-15.363 6.899-15 15 .364 8.127 6.591 15 15 15z" fill="#3c3568"/></g></g><path d="m268.72 105.326c-.364-8.127-6.591-15-15-15v30c7.846 0 15.363-6.899 15-15z" fill="#2b2642"/></g></svg>