<?xml version="1.0" encoding="iso-8859-1"?>
<!-- Generator: Adobe Illustrator 19.0.0, SVG Export Plug-In . SVG Version: 6.00 Build 0)  -->
<svg version="1.1" id="Capa_1" xmlns="http://www.w3.org/2000/svg" xmlns:xlink="http://www.w3.org/1999/xlink" x="0px" y="0px"
	 viewBox="0 0 512 512" style="enable-background:new 0 0 512 512;" xml:space="preserve">
<g>
	<path style="fill:#C06376;" d="M251.393,119.955c-2.571,0-5.074-1.322-6.471-3.698l-20.555-34.943
		c-2.1-3.57-0.909-8.167,2.662-10.268c3.572-2.1,8.167-0.908,10.267,2.662l20.555,34.943c2.1,3.57,0.908,8.167-2.662,10.268
		C253.994,119.621,252.685,119.955,251.393,119.955z"/>
	<path style="fill:#C06376;" d="M384.983,115.845c-1.395,0-2.805-0.389-4.063-1.201c-3.479-2.248-4.479-6.891-2.23-10.369
		l18.591-28.777c2.248-3.48,6.893-4.475,10.369-2.23c3.479,2.248,4.479,6.891,2.23,10.369l-18.591,28.777
		C389.855,114.635,387.444,115.845,384.983,115.845z"/>
	<path style="fill:#C06376;" d="M470.994,407.324c-1.98,0-3.958-0.78-5.432-2.328l-31.801-33.392
		c-2.857-2.999-2.741-7.746,0.259-10.603c2.998-2.856,7.747-2.74,10.602,0.259l31.801,33.392c2.857,2.999,2.741,7.746-0.259,10.603
		C474.714,406.638,472.852,407.324,470.994,407.324z"/>
	<path style="fill:#C06376;" d="M148.218,377.587c-2.318,0-4.604-1.071-6.072-3.09c-2.437-3.35-1.696-8.04,1.654-10.477
		l26.236-19.081c3.351-2.438,8.041-1.695,10.477,1.654c2.437,3.35,1.696,8.04-1.654,10.477l-26.236,19.081
		C151.291,377.12,149.747,377.587,148.218,377.587z"/>
	<path style="fill:#C06376;" d="M101.925,240.324l-66.313-50.138c-7.103-5.371-17.343-2.91-21.231,5.102l0,0
		c-19.175,39.514-19.175,85.638,0,125.152l0,0c3.888,8.012,14.128,10.472,21.231,5.101l66.313-50.138V240.324z"/>
</g>
<path style="fill:#F3CE72;" d="M322.612,82.965c-78.204,0-145.329,43.777-174.226,106.241
	c-10.471,22.634-31.948,38.187-56.796,40.326l-0.057,0.005c-14.703,1.265-25.994,13.57-25.994,28.327l0,0
	c0,14.758,11.291,27.062,25.994,28.327l0.057,0.005c24.847,2.139,46.325,17.691,56.796,40.326
	c28.897,62.464,96.021,106.241,174.225,106.241C427.208,432.762,512,354.457,512,257.863C512,161.27,427.208,82.965,322.612,82.965z
	"/>
<path style="opacity:0.5;fill:#FFFFFF;enable-background:new    ;" d="M399.96,286.366c-18.404,0-35.83,3.29-51.381,9.162
	c-65.404,24.698-136.178,31.625-204.673,17.624l-4.269-0.873c3.423,4.335,6.373,9.104,8.75,14.243
	c28.897,62.464,96.022,106.241,174.226,106.241c78.437,0,145.736-44.035,174.493-106.796
	C475.58,302.01,440.094,286.366,399.96,286.366z"/>
<path style="opacity:0.08;enable-background:new    ;" d="M303.2,274.47c-65.547-79.854-8.387-174.883,48.222-189.495
	c-9.394-1.324-19.015-2.011-28.809-2.011c-78.204,0-145.329,43.777-174.225,106.241c-10.471,22.634-31.949,38.187-56.796,40.326
	l-0.057,0.005c-14.703,1.265-25.994,13.57-25.994,28.327s11.291,27.062,25.994,28.327l0.057,0.005
	c24.847,2.139,46.325,17.691,56.796,40.326c28.897,62.464,96.021,106.241,174.225,106.241c89.809,0,165.014-57.73,184.484-135.198
	C483.459,322.37,368.415,353.921,303.2,274.47z"/>
<g>
	<path style="fill:#C06376;" d="M200.19,167.999c-1.919,0-3.839-0.732-5.303-2.196l-33.693-33.692c-2.929-2.93-2.929-7.678,0-10.607
		c2.929-2.928,7.678-2.928,10.607,0l33.693,33.692c2.929,2.93,2.929,7.678,0,10.607C204.029,167.267,202.109,167.999,200.19,167.999
		z"/>
	<path style="fill:#C06376;" d="M318.371,119.954c-4.143,0-7.5-3.357-7.5-7.5V67.975c0-4.143,3.357-7.5,7.5-7.5s7.5,3.357,7.5,7.5
		v44.479C325.871,116.597,322.514,119.954,318.371,119.954z"/>
	<path style="fill:#C06376;" d="M436.808,146.232c-1.919,0-3.839-0.732-5.303-2.196c-2.93-2.929-2.93-7.678-0.001-10.606
		l25.44-25.441c2.93-2.93,7.679-2.929,10.606-0.001c2.93,2.929,2.93,7.678,0.001,10.606l-25.44,25.441
		C440.646,145.5,438.727,146.232,436.808,146.232z"/>
	<path style="fill:#C06376;" d="M120.058,270.594c-3.34,0-6.386-2.248-7.258-5.632c-1.033-4.011,1.382-8.101,5.393-9.133
		l24.434-6.292c4.009-1.035,8.101,1.382,9.133,5.393c1.033,4.011-1.382,8.101-5.393,9.133l-24.435,6.292
		C121.306,270.517,120.677,270.594,120.058,270.594z"/>
	<path style="fill:#C06376;" d="M226.913,440.264c-1.477,0-2.969-0.436-4.274-1.343c-3.401-2.364-4.241-7.038-1.877-10.44
		l21.466-30.876c2.365-3.4,7.037-4.242,10.439-1.877c3.401,2.364,4.241,7.038,1.877,10.439l-21.466,30.876
		C231.62,439.14,229.286,440.264,226.913,440.264z"/>
	<path style="fill:#C06376;" d="M389.111,451.525c-2.775,0-5.442-1.547-6.744-4.208l-17.49-35.776
		c-1.819-3.721-0.277-8.213,3.444-10.032c3.72-1.816,8.213-0.276,10.032,3.444l17.49,35.776c1.819,3.721,0.277,8.213-3.444,10.032
		C391.34,451.279,390.217,451.525,389.111,451.525z"/>
	<path style="fill:#C06376;" d="M409.782,335.451c-2.751,0-5.399-1.52-6.714-4.147l-10.336-20.671
		c-1.853-3.705-0.351-8.21,3.354-10.063c3.708-1.851,8.21-0.351,10.063,3.354l10.336,20.671c1.852,3.705,0.351,8.21-3.354,10.063
		C412.054,335.195,410.909,335.451,409.782,335.451z"/>
	<path style="fill:#C06376;" d="M290.638,275.96l-61.058,20.937c-5.203,1.784-10.958-0.097-14.102-4.61l0,0
		c-16.486-23.658-16.486-55.082,0-78.74l0,0c3.145-4.512,8.899-6.394,14.102-4.61l61.058,20.937
		c7.514,2.577,12.561,9.643,12.561,17.587v10.914C303.2,266.317,298.153,273.384,290.638,275.96z"/>
</g>
<path style="opacity:0.1;enable-background:new    ;" d="M271.939,260.109h-41.108c-4.142,0-7.5-3.358-7.5-7.5
	c0-4.143,3.358-7.5,7.5-7.5h41.108c4.143,0,7.5,3.357,7.5,7.5S276.082,260.109,271.939,260.109z"/>
<g style="opacity:0.1;">
	<path d="M48.415,245.642c-1.066,0-2.149-0.229-3.178-0.711l-18.631-8.732c-3.75-1.758-5.366-6.224-3.608-9.974
		c1.757-3.751,6.223-5.366,9.974-3.608l18.631,8.732c3.75,1.758,5.366,6.224,3.608,9.974
		C53.935,244.044,51.234,245.642,48.415,245.642z"/>
	<path d="M29.793,293.822c-2.819,0-5.52-1.597-6.796-4.318c-1.758-3.751-0.143-8.217,3.608-9.975l18.631-8.733
		c3.75-1.758,8.216-0.143,9.974,3.607c1.758,3.751,0.143,8.217-3.608,9.975l-18.631,8.733
		C31.943,293.594,30.859,293.822,29.793,293.822z"/>
</g>
<g>
	<path style="fill:#485358;" d="M363.346,236.254c-4.143,0-7.5-3.357-7.5-7.5v-9.08c0-4.143,3.357-7.5,7.5-7.5s7.5,3.357,7.5,7.5
		v9.08C370.846,232.896,367.488,236.254,363.346,236.254z"/>
	<path style="fill:#485358;" d="M472.752,236.254c-4.143,0-7.5-3.357-7.5-7.5v-9.08c0-4.143,3.357-7.5,7.5-7.5s7.5,3.357,7.5,7.5
		v9.08C480.252,232.896,476.895,236.254,472.752,236.254z"/>
	<path style="fill:#485358;" d="M418.049,243.227c-7.695,0-15.013-3.333-20.076-9.144c-2.722-3.122-2.396-7.86,0.728-10.581
		c3.122-2.722,7.86-2.396,10.581,0.728c2.214,2.54,5.409,3.997,8.768,3.997s6.555-1.457,8.769-3.997
		c2.721-3.124,7.458-3.449,10.581-0.728c3.123,2.721,3.449,7.459,0.728,10.581C433.063,239.893,425.745,243.227,418.049,243.227z"/>
</g>
<g>
</g>
<g>
</g>
<g>
</g>
<g>
</g>
<g>
</g>
<g>
</g>
<g>
</g>
<g>
</g>
<g>
</g>
<g>
</g>
<g>
</g>
<g>
</g>
<g>
</g>
<g>
</g>
<g>
</g>
</svg>
