<svg height="512" viewBox="0 0 512 512" width="512" xmlns="http://www.w3.org/2000/svg"><g id="Flat"><path d="m488 280-144.32 64.14-48.6 21.6-10.23 4.55-44.28 19.68-16.79 7.46-42.43 18.86-30.22 13.43a49.983 49.983 0 0 1 -68.36-59.4l14.15-49.53a10.206 10.206 0 0 0 -8.92-12.97 9.964 9.964 0 0 0 -6.11 1.44l-57.89 34.74v-144l61.52 24.61a10.488 10.488 0 0 0 2.48.66 10.2 10.2 0 0 0 11.17-12.58l-21.12-84.49a40.406 40.406 0 0 1 43.55-49.97l58.88 6.36 45.89 4.96 25.77 2.79a188.445 188.445 0 0 1 151.92 110.79l2.75 6.2a117.923 117.923 0 0 0 55.04 57.59z" fill="#f7ce2c"/><path d="m88 225.27v82.55a9.964 9.964 0 0 0 -6.11 1.44l-57.89 34.74v-144l61.52 24.61a10.488 10.488 0 0 0 2.48.66z" fill="#6a82fb"/><path d="m425.992 193.383a212.415 212.415 0 0 0 -171.273-124.9l-71.579-7.741 1.72-15.908 71.579 7.737a228.417 228.417 0 0 1 184.174 134.314zm-258.852-134.371-16-1.729 1.72-15.908 16 1.73z" fill="#e3e4e2"/><path d="m296.578 339.527-14.618 38.342a27.049 27.049 0 0 1 -40.819 12.5l-17.854-12.538 46.893-56.931z" fill="#3f4041"/><path d="m384 248h16v16h-16z" fill="#3f4041"/><rect fill="#4c67c9" height="40.792" rx="8" transform="matrix(.196 -.981 .981 .196 -192.442 269.258)" width="16" x="60" y="231.604"/><rect fill="#4c67c9" height="16" rx="8" transform="matrix(.981 -.196 .196 .981 -54.373 18.85)" width="40.792" x="47.604" y="276"/><path d="m359 263.99c0 42.04-12.27 47.27-15.32 80.15l-48.6 21.6c-.05-1.84-.08-3.75-.08-5.74 0-48 16-48 16-96.01s-16-48-16-95.99c0-32.4 7.29-42.93 12.03-61.12a188.089 188.089 0 0 1 40.53 24.06c-2.57 9.19-4.56 20.15-4.56 37.06 0 47.99 16 47.99 16 95.99z" fill="#6a82fb"/><path d="m214 344c0 27.59 5.29 39.32 9.78 53.43l-42.43 18.86c-4.08-26.19-14.35-33.84-14.35-72.29 0-48 16-48 16-96.01s-16-48-16-95.99c0-35.95 8.98-44.98 13.48-67.41l45.89 4.96c-4.72 19.02-12.37 29.27-12.37 62.45 0 47.99 16 47.99 16 95.99s-16 48.01-16 96.01z" fill="#6a82fb"/><circle cx="160" cy="152" fill="#3f4041" r="24"/></g></svg>